<svg xmlns="http://www.w3.org/2000/svg" xmlns:xlink="http://www.w3.org/1999/xlink" xmlns:lucid="lucid" width="733.33" height="568.13"><g transform="translate(-193.3333333333333 -120.00000000000006)" lucid:page-tab-id="0_0"><path d="M460 437V242.12" stroke="#3a414a" stroke-width="3" fill="none"/><path d="M461.5 438.56l-1.5-.06-1.5.05v-1.6h3z" stroke="#3a414a" stroke-width=".05" fill="#3a414a"/><path d="M460 226.35l4.64 14.27h-9.28z" stroke="#3a414a" stroke-width="3" fill="#3a414a"/><path d="M890.67 424c8.83 0 16 7.16 16 16 0 7.07-4.34 13.03-11.06 15.22C896 476 869.34 480 858.68 472c-5.34 12-32 8-32-4-16 4-32-12-21.34-32-10.66-16 0-36 21.34-28 5.33-10.4 26.66-10.4 32 0 10.66-8 32-4 32 16z" stroke="#3a414a" stroke-width="3" fill-opacity="0"/><path d="M400 286c0-3.3 2.7-6 6-6h308c3.3 0 6 2.7 6 6v68c0 3.3-2.7 6-6 6H406c-3.3 0-6-2.7-6-6z" stroke="#3a414a" stroke-width="3" fill="#e0e5ef"/><use xlink:href="#a" transform="matrix(1,0,0,1,412,292) translate(106.51779513888889 34.61631944444444)"/><path d="M720 500c0 33.14-26.86 60-60 60s-60-26.86-60-60 26.86-60 60-60 60 26.86 60 60z" stroke="#3a414a" stroke-width="3" fill="#9fd3d3"/><use xlink:href="#b" transform="matrix(1,0,0,1,605,445.00000000000006) translate(7.180989583333336 61.86631944444444)"/><path d="M520 500c0 33.14-26.86 60-60 60s-60-26.86-60-60 26.86-60 60-60 60 26.86 60 60z" stroke="#3a414a" stroke-width="3" fill="#fce1b2"/><use xlink:href="#c" transform="matrix(1,0,0,1,405,445) translate(26.202256944444443 61.86631944444444)"/><path d="M400 146c0-3.3 2.7-6 6-6h308c3.3 0 6 2.7 6 6v68c0 3.3-2.7 6-6 6H406c-3.3 0-6-2.7-6-6z" stroke="#3a414a" stroke-width="3" fill="#85d783"/><use xlink:href="#d" transform="matrix(1,0,0,1,412.0000000000001,152.00000000000006) translate(101.13585069444444 34.61631944444444)"/><path d="M609.4 462.6L476.06 329.1" stroke="#3a414a" stroke-width="3" fill="none"/><path d="M611.34 462.42l-1.78 2.46-1.26-1.26 2.12-2.12z" stroke="#3a414a" stroke-width=".05" fill="#3a414a"/><path d="M464.93 317.93l13.36 6.82-6.57 6.55z" stroke="#3a414a" stroke-width="3" fill="#3a414a"/><path d="M229.33 456c-8.83 0-16-7.16-16-16 0-7.07 4.34-13.03 11.06-15.22C224 404 250.66 400 261.32 408c5.34-12 32-8 32 4 16-4 32 12 21.34 32 10.66 16 0 36-21.34 28-5.33 10.4-26.66 10.4-32 0-10.66 8-32 4-32-16z" stroke="#3a414a" stroke-width="3" fill-opacity="0"/><path d="M397 320.03l-8.13.17-9.3.58-8.8.93-8.22 1.22-7.62 1.45-7 1.64-6.4 1.8-5.83 1.9-5.32 1.97-4.85 2.03-4.42 2.08-4.02 2.1-3.7 2.14-3.37 2.14-3.08 2.15-2.85 2.17-2.62 2.17-2.42 2.17-2.23 2.2-2.06 2.2-1.9 2.2-1.77 2.23-1.64 2.25-1.5 2.27-1.4 2.3-1.3 2.35-1.17 2.38-1.1 2.44-.98 2.5-.9 2.55-.78 2.63-.7 2.7-.6 2.82-.5 2.92-.37 3.04-.27 3.18-.08 1.9" stroke="#3a414a" stroke-width="3" fill="none"/><path d="M398.5 321.5l-1.5.03-.07-3 1.57-.03zM279.25 397.86l-.03 1.66-.76-.14-2.24-.04.03-1.54z" stroke="#3a414a" stroke-width=".05" fill="#3a414a"/><path d="M317.7 469.78l6.78 5.96 6.46 5 5.68 3.88 5.23 3.1 5 2.6 4.98 2.18 5.1 1.88 5.38 1.62 5.93 1.4 6.8 1.15 2.9.32" stroke="#3a414a" stroke-width="3" fill="none"/><path d="M318.7 468.68l-1.97 2.25-1.18-1.04.97-1.05.86-1.34z" stroke="#3a414a" stroke-width=".05" fill="#3a414a"/><path d="M393.65 499.73l-14.5 3.85.5-9.26z" stroke="#3a414a" stroke-width="3" fill="#3a414a"/><path d="M213.33 406c0-3.3 2.7-6 6-6H314c3.3 0 6 2.7 6 6v68c0 3.3-2.7 6-6 6h-94.67c-3.3 0-6-2.7-6-6z" stroke="#000" stroke-opacity="0" fill="#fff" fill-opacity="0"/><use xlink:href="#e" transform="matrix(1,0,0,1,218.3333333333333,405) translate(23.035590277777782 40.55555555555556)"/><path d="M800 406c0-3.3 2.7-6 6-6h94.67c3.3 0 6 2.7 6 6v68c0 3.3-2.7 6-6 6H806c-3.3 0-6-2.7-6-6z" stroke="#000" stroke-opacity="0" fill="#fff" fill-opacity="0"/><use xlink:href="#e" transform="matrix(1,0,0,1,805.0000000000002,405) translate(23.035590277777782 40.55555555555556)"/><path d="M805.2 464.6l-7.15 6.95-6.57 5.67-5.7 4.35-5.16 3.5-4.9 2.88-4.75 2.45-4.77 2.1-4.9 1.85-5.2 1.6-5.62 1.36-6.32 1.15-2.1.26" stroke="#3a414a" stroke-width="3" fill="none"/><path d="M805.63 462.9l1.73 1.7-1.14 1.1-2.1-2.16 1.15-1.1z" stroke="#3a414a" stroke-width=".05" fill="#3a414a"/><path d="M726.35 499.7l13.94-5.53.57 9.26z" stroke="#3a414a" stroke-width="3" fill="#3a414a"/><path d="M300 226c0-3.3 2.7-6 6-6h68c3.3 0 6 2.7 6 6v28c0 3.3-2.7 6-6 6h-68c-3.3 0-6-2.7-6-6z" stroke="#000" stroke-opacity="0" fill="#fff" fill-opacity="0"/><use xlink:href="#f" transform="matrix(1,0,0,1,305,225) translate(4.644097222222225 22.305555555555554)"/><path d="M460 280.75c.4 0 .75.34.75.75v77c0 .4-.34.75-.75.75-.4 0-.75-.34-.75-.75v-77c0-.4.34-.75.75-.75z" stroke="#c64242" stroke-width="1.5" fill="none"/><path d="M519.8 336.4c2.35-2.35 6.15-2.35 8.5 0l103.16 103.16c2.35 2.35 2.35 6.14 0 8.5L615.9 463.6c-2.34 2.35-6.14 2.35-8.48 0L504.24 360.45c-2.34-2.35-2.34-6.14 0-8.5z" stroke="#000" stroke-opacity="0" fill="#fff" fill-opacity="0"/><use xlink:href="#g" transform="matrix(0.7071067811865476,0.7071067811865475,-0.7071067811865475,0.7071067811865476,524.0490442268396,339.21727501804577) translate(41.42187500000001 18.055555555555554)"/><path d="M723 320.03l5.1.12 6.17.4 5.78.66 5.46.86 5.17 1.06 4.9 1.23 4.7 1.4 4.5 1.57 4.34 1.73 4.2 1.9 4.07 2.05 3.96 2.24 3.87 2.4 3.8 2.62 3.7 2.82 3.7 3.05 3.6 3.3 3.6 3.56 3.58 3.88 3.56 4.22 3.55 4.62 3.53 5.08 3.55 5.58 3.55 6.2 3.55 6.88 3.55 7.7.8 1.93" stroke="#3a414a" stroke-width="3" fill="none"/><path d="M723.07 318.53l-.06 3-1.5-.03v-3zM834.8 399.9l-2.76 1.14-.6-1.4 2.77-1.17z" stroke="#3a414a" stroke-width=".05" fill="#3a414a"/><path d="M643.93 372.13c3.12-1.13 6.56.5 7.68 3.6l18.62 51.7c1.12 3.12-.5 6.56-3.62 7.68l-14.62 5.28c-3.12 1.12-6.56-.5-7.68-3.62l-18.6-51.7c-1.13-3.1.5-6.55 3.6-7.67z" stroke="#000" stroke-opacity="0" fill="#fff" fill-opacity="0"/><use xlink:href="#h" transform="matrix(0.3386810592288361,0.9409012382389735,-0.9409012382389735,0.3386810592288361,646.566746733265,376.4915141841601) translate(8.131076388888896 16.493055555555554)"/><path d="M676.73 439.3l7.87-57.37" stroke="#3a414a" stroke-width="3" fill="none"/><path d="M678.23 439.47l-.25 1.75-2.72-.8-.2-.05.2-1.3z" stroke="#3a414a" stroke-width=".05" fill="#3a414a"/><path d="M686.74 366.3l2.66 14.77-9.2-1.26z" stroke="#3a414a" stroke-width="3" fill="#3a414a"/><path d="M714.05 373.44c3.3.44 5.6 3.47 5.14 6.75l-8.3 60.94c-.46 3.28-3.5 5.58-6.77 5.13l-18.6-2.53c-3.27-.45-5.57-3.47-5.13-6.76l8.3-60.94c.46-3.28 3.48-5.58 6.76-5.14z" stroke="#000" stroke-opacity="0" fill="#fff" fill-opacity="0"/><use xlink:href="#i" transform="matrix(-0.1350153482986357,0.9908435071815317,-0.9908435071815317,-0.1350153482986357,714.370705722599,378.5262351782724) translate(-2.991319444444443 16.57638888888889)"/><path d="M426 440.07c-3.3 0-6-2.7-6-6v-68c0-3.32 2.7-6 6-6h28c3.3 0 6 2.68 6 6v68c0 3.3-2.7 6-6 6z" stroke="#000" stroke-opacity="0" fill="#fff" fill-opacity="0"/><use xlink:href="#j" transform="matrix(6.123233995736766e-17,-1,1,6.123233995736766e-17,425,435.0667214856851) translate(19.774305555555557 20.243055555555554)"/><path d="M380 586c0-3.3 2.7-6 6-6h348c3.3 0 6 2.7 6 6v76.13c0 3.3-2.7 6-6 6H386c-3.3 0-6-2.7-6-6z" stroke="#000" stroke-opacity="0" fill="#fff" fill-opacity="0"/><use xlink:href="#k" transform="matrix(1,0,0,1,385,585) translate(8.978949652777771 47.77256944444444)"/><use xlink:href="#l" transform="matrix(1,0,0,1,385,585) translate(111.572265625 47.77256944444444)"/><use xlink:href="#m" transform="matrix(1,0,0,1,385,585) translate(137.63563368055554 47.77256944444444)"/><use xlink:href="#n" transform="matrix(1,0,0,1,385,585) translate(194.6343315972222 47.77256944444444)"/><use xlink:href="#o" transform="matrix(1,0,0,1,385,585) translate(285.6282552083333 47.77256944444444)"/><path d="M378.5 624.03l-3.2-.07-4.5-.28-4.4-.46-4.23-.63-4.13-.8-4.02-.93-3.92-1.1-3.84-1.25-3.77-1.4-3.7-1.55-3.64-1.7-3.58-1.9-3.54-2.03-3.48-2.2-3.45-2.4-3.4-2.6-3.38-2.8-3.33-3-3.32-3.23-3.26-3.47-3.22-3.73-3.18-4-3.12-4.3-3.05-4.6-2.98-4.92-2.9-5.25-2.77-5.6-2.64-5.96-2.5-6.3-2.32-6.67-2.12-7-1.88-7.35-1.62-7.64-1.34-7.9-1.02-8.1-.03-.32" stroke="#3a414a" stroke-width="3" fill="none"/><path d="M380 622.56v3l-1.57-.03.06-3z" stroke="#3a414a" stroke-width=".05" fill="#3a414a"/><path d="M266.92 484.85l5.36 14-9.25.48z" stroke="#3a414a" stroke-width="3" fill="#3a414a"/><path d="M741.5 624.03l3.2-.07 4.5-.28 4.4-.46 4.23-.63 4.13-.8 4.02-.93 3.92-1.1 3.84-1.25 3.77-1.4 3.7-1.55 3.64-1.7 3.58-1.9 3.54-2.03 3.48-2.2 3.45-2.4 3.4-2.6 3.38-2.8 3.33-3 3.32-3.23 3.26-3.47 3.22-3.73 3.18-4 3.12-4.3 3.05-4.6 2.98-4.92 2.9-5.25 2.77-5.6 2.64-5.96 2.5-6.3 2.32-6.67 2.12-7 1.88-7.35 1.62-7.64 1.34-7.9 1.02-8.1.03-.32" stroke="#3a414a" stroke-width="3" fill="none"/><path d="M741.57 625.53l-1.57.03v-3l1.5-.03z" stroke="#3a414a" stroke-width=".05" fill="#3a414a"/><path d="M853.08 484.85l3.9 14.48-9.26-.48z" stroke="#3a414a" stroke-width="3" fill="#3a414a"/><path d="M642 439.66l-21.43-58.8" stroke="#3a414a" stroke-width="3" fill="none"/><path d="M643.97 440.66l-2.9.82-.48-1.34 2.8-1.03z" stroke="#3a414a" stroke-width=".05" fill="#3a414a"/><path d="M615.16 366.06l9.25 11.8-8.7 3.2z" stroke="#3a414a" stroke-width="3" fill="#3a414a"/><path d="M378.36 259.97l12.1 11.48 7.8 6.5 6.1 4.48 5.32 3.4 4.9 2.75 4.72 2.26 4.7 1.9 4.8 1.6 5.04 1.36 4.15.85" stroke="#c64242" stroke-width="3" fill="none"/><path d="M379.42 258.9l-2.06 2.2-1.64-1.57 1.3-.35 1.3-1.3z" stroke="#c64242" stroke-width=".05" fill="#c64242"/><path d="M453.66 297.9l-14.6 3.4.8-9.24z" stroke="#c64242" stroke-width="3" fill="#c64242"/><defs><path fill="#1e293b" d="M658-217c127 0 227-49 227-165 0-57-21-98-60-130-79-64-370-142-463-196-162-95-248-210-248-361 0-280 246-403 537-407 213-3 383 84 467 216 45 69 68 147 68 234H886c0-139-96-211-240-211-129 0-232 55-232 169 0 47 24 87 72 119s117 62 210 90c171 51 295 115 373 191s117 171 117 284c-2 272-237 411-528 404C331 13 78-135 69-458h301c0 161 96 241 288 241" id="p"/><path fill="#1e293b" d="M579 20C257 20 58-214 66-551c8-331 182-551 511-551 324 0 514 231 514 572 0 319-198 550-512 550zm-2-888c-169 0-222 141-222 338 0 181 61 317 224 317 170 0 223-137 223-338 0-178-64-317-225-317" id="q"/><path fill="#1e293b" d="M416 0H126v-1536h290V0" id="r"/><path fill="#1e293b" d="M463 20c-241-1-359-147-359-393v-709h289v699c0 113 51 169 154 169 98 0 165-34 202-102v-766h290V0H767l-8-110C688-23 589 20 463 20" id="s"/><path fill="#1e293b" d="M457-330c2 83 25 111 111 112 32 0 60-2 85-7V-6c-57 17-115 26-175 26-203 0-310-102-310-307v-583H10v-212h158v-266h289v266h185v212H457v540" id="t"/><path fill="#1e293b" d="M416 0H126v-1082h290V0zM271-1212c-92 0-162-61-162-150s68-149 162-149c93 0 162 60 162 149s-70 150-162 150" id="u"/><path fill="#1e293b" d="M750-692c-1-124-48-174-173-175-81 0-142 35-183 104V0H105v-1082h272l9 125c77-97 181-145 311-145 244 0 342 151 342 403V0H750v-692" id="v"/><g id="a"><use transform="matrix(0.010850694444444444,0,0,0.010850694444444444,0,0)" xlink:href="#p"/><use transform="matrix(0.010850694444444444,0,0,0.010850694444444444,13.661024305555555,0)" xlink:href="#q"/><use transform="matrix(0.010850694444444444,0,0,0.010850694444444444,26.22612847222222,0)" xlink:href="#r"/><use transform="matrix(0.010850694444444444,0,0,0.010850694444444444,32.11805555555556,0)" xlink:href="#s"/><use transform="matrix(0.010850694444444444,0,0,0.010850694444444444,44.552951388888886,0)" xlink:href="#t"/><use transform="matrix(0.010850694444444444,0,0,0.010850694444444444,52.06163194444444,0)" xlink:href="#u"/><use transform="matrix(0.010850694444444444,0,0,0.010850694444444444,57.95355902777778,0)" xlink:href="#q"/><use transform="matrix(0.010850694444444444,0,0,0.010850694444444444,70.51866319444444,0)" xlink:href="#v"/></g><path fill="#1e293b" d="M1245-974c0 302-233 466-552 461H430V0H130v-1456h568c323 5 547 167 547 482zm-303 2c1-143-93-241-237-241H430v457h268c151 1 244-71 244-216" id="w"/><path fill="#1e293b" d="M719-811c-143-24-279 1-319 103V0H111v-1082h273l8 129c74-124 180-175 331-136" id="x"/><path fill="#1e293b" d="M516-353l201-729h302L654 0H378L13-1082h302" id="y"/><path fill="#1e293b" d="M488 20C204 20 66-234 66-549c0-305 140-551 424-553 105 0 192 39 261 118v-552h290V0H780l-14-115C694-25 601 20 488 20zM355-528c0 176 51 314 207 314 89 0 152-38 189-113v-427c-36-75-98-113-187-113-139 0-209 113-209 339" id="z"/><path fill="#1e293b" d="M1031-175C952-60 797 20 609 20 287 20 60-206 72-543c12-330 180-559 505-559 309 0 482 214 477 537v118H365c15 134 115 234 263 234 111 0 198-40 261-121zM770-644c5-139-62-226-194-224-130 1-191 97-208 224h402" id="A"/><path fill="#1e293b" d="M529-185c94 0 168-33 168-114 0-35-18-63-53-83s-91-39-168-55C219-491 90-600 90-765c0-208 203-337 432-337 246 0 451 124 453 349H686c-2-91-62-143-165-143-86 0-151 41-153 117 0 32 16 57 46 77 63 43 257 69 335 100 151 60 229 153 229 291C978-13 554 93 282-28 162-81 60-190 56-344h274c5 106 86 159 199 159" id="B"/><g id="b"><use transform="matrix(0.010850694444444444,0,0,0.010850694444444444,0,0)" xlink:href="#w"/><use transform="matrix(0.010850694444444444,0,0,0.010850694444444444,14.33376736111111,0)" xlink:href="#x"/><use transform="matrix(0.010850694444444444,0,0,0.010850694444444444,22.04861111111111,0)" xlink:href="#q"/><use transform="matrix(0.010850694444444444,0,0,0.010850694444444444,34.45095486111111,0)" xlink:href="#y"/><use transform="matrix(0.010850694444444444,0,0,0.010850694444444444,45.68142361111111,0)" xlink:href="#u"/><use transform="matrix(0.010850694444444444,0,0,0.010850694444444444,51.57335069444444,0)" xlink:href="#z"/><use transform="matrix(0.010850694444444444,0,0,0.010850694444444444,64.09505208333333,0)" xlink:href="#A"/><use transform="matrix(0.010850694444444444,0,0,0.010850694444444444,76.10677083333333,0)" xlink:href="#x"/><use transform="matrix(0.010850694444444444,0,0,0.010850694444444444,84.21223958333333,0)" xlink:href="#B"/></g><path fill="#1e293b" d="M416-495c-3 181 88 274 258 274 169 0 257-89 257-266v-969h301v959c3 324-227 517-558 517-328 0-557-188-558-506v-970h300v961" id="C"/><g id="c"><use transform="matrix(0.010850694444444444,0,0,0.010850694444444444,0,0)" xlink:href="#C"/><use transform="matrix(0.010850694444444444,0,0,0.010850694444444444,14.62673611111111,0)" xlink:href="#B"/><use transform="matrix(0.010850694444444444,0,0,0.010850694444444444,26.05251736111111,0)" xlink:href="#A"/><use transform="matrix(0.010850694444444444,0,0,0.010850694444444444,38.064236111111114,0)" xlink:href="#x"/><use transform="matrix(0.010850694444444444,0,0,0.010850694444444444,46.16970486111111,0)" xlink:href="#B"/></g><path fill="#1e293b" d="M1248-1138c106 220 104 603 2 820-91 195-274 338-542 338C281 20 86-300 86-759c0-291 115-515 296-629 182-114 467-115 648 0 94 60 166 141 218 250zM940-344c111-153 110-617 0-765-57-77-133-119-234-119s-177 41-233 118c-64 88-83 240-83 415 0 149 27 264 82 346s133 123 236 123c101 0 176-40 232-118" id="D"/><path fill="#1e293b" d="M663-1102c295 0 423 246 423 571 0 313-131 551-421 551-117 0-211-45-281-135L371 0H111v-1536h289v551c67-78 154-117 263-117zm-71 889c164 0 209-139 205-339-3-189-44-315-207-315-92 0-155 38-190 113v427c35 76 99 114 192 114" id="E"/><path fill="#1e293b" d="M417 59c1 237-132 380-369 378-50 0-98-6-143-17V191c122 27 222 1 222-130v-1143h290V59zM266-1212c-92 0-162-61-162-150s68-149 162-149 162 60 162 149-70 150-162 150" id="F"/><path fill="#1e293b" d="M355-556c-2 203 30 338 206 343 102 3 181-63 182-161h271C1001-128 821 17 566 20 242 24 66-212 66-554c0-320 184-548 498-548 262 0 451 167 450 423H743c-1-108-75-193-184-189-162 6-202 123-204 312" id="G"/><g id="d"><use transform="matrix(0.010850694444444444,0,0,0.010850694444444444,0,0)" xlink:href="#D"/><use transform="matrix(0.010850694444444444,0,0,0.010850694444444444,15.342881944444445,0)" xlink:href="#E"/><use transform="matrix(0.010850694444444444,0,0,0.010850694444444444,27.85373263888889,0)" xlink:href="#F"/><use transform="matrix(0.010850694444444444,0,0,0.010850694444444444,33.626302083333336,0)" xlink:href="#A"/><use transform="matrix(0.010850694444444444,0,0,0.010850694444444444,45.63802083333333,0)" xlink:href="#G"/><use transform="matrix(0.010850694444444444,0,0,0.010850694444444444,57.2265625,0)" xlink:href="#t"/><use transform="matrix(0.010850694444444444,0,0,0.010850694444444444,64.73524305555556,0)" xlink:href="#u"/><use transform="matrix(0.010850694444444444,0,0,0.010850694444444444,70.62717013888889,0)" xlink:href="#y"/><use transform="matrix(0.010850694444444444,0,0,0.010850694444444444,81.71657986111111,0)" xlink:href="#A"/></g><path fill="#3a414a" d="M1314 0h-300L430-958V0H130v-1456h300l585 960v-960h299V0" id="H"/><path fill="#3a414a" d="M1031-175C952-60 797 20 609 20 287 20 60-206 72-543c12-330 180-559 505-559 309 0 482 214 477 537v118H365c15 134 115 234 263 234 111 0 198-40 261-121zM770-644c5-139-62-226-194-224-130 1-191 97-208 224h402" id="I"/><path fill="#3a414a" d="M488 20C204 20 66-234 66-549c0-305 140-551 424-553 105 0 192 39 261 118v-552h290V0H780l-14-115C694-25 601 20 488 20zM355-528c0 176 51 314 207 314 89 0 152-38 189-113v-427c-36-75-98-113-187-113-139 0-209 113-209 339" id="J"/><path fill="#3a414a" d="M529-185c94 0 168-33 168-114 0-35-18-63-53-83s-91-39-168-55C219-491 90-600 90-765c0-208 203-337 432-337 246 0 451 124 453 349H686c-2-91-62-143-165-143-86 0-151 41-153 117 0 32 16 57 46 77 63 43 257 69 335 100 151 60 229 153 229 291C978-13 554 93 282-28 162-81 60-190 56-344h274c5 106 86 159 199 159" id="K"/><g id="e"><use transform="matrix(0.008680555555555554,0,0,0.008680555555555554,0,0)" xlink:href="#H"/><use transform="matrix(0.008680555555555554,0,0,0.008680555555555554,12.552083333333332,0)" xlink:href="#I"/><use transform="matrix(0.008680555555555554,0,0,0.008680555555555554,22.16145833333333,0)" xlink:href="#I"/><use transform="matrix(0.008680555555555554,0,0,0.008680555555555554,31.77083333333333,0)" xlink:href="#J"/><use transform="matrix(0.008680555555555554,0,0,0.008680555555555554,41.788194444444436,0)" xlink:href="#K"/></g><path fill="#c64242" d="M1006-595H430V0H130v-1456h948v243H430v376h576v242" id="L"/><path fill="#c64242" d="M719-811c-143-24-279 1-319 103V0H111v-1082h273l8 129c74-124 180-175 331-136" id="M"/><path fill="#c64242" d="M416 0H126v-1082h290V0zM271-1212c-92 0-162-61-162-150s68-149 162-149c93 0 162 60 162 149s-70 150-162 150" id="N"/><path fill="#c64242" d="M355-556c-2 203 30 338 206 343 102 3 181-63 182-161h271C1001-128 821 17 566 20 242 24 66-212 66-554c0-320 184-548 498-548 262 0 451 167 450 423H743c-1-108-75-193-184-189-162 6-202 123-204 312" id="O"/><path fill="#c64242" d="M457-330c2 83 25 111 111 112 32 0 60-2 85-7V-6c-57 17-115 26-175 26-203 0-310-102-310-307v-583H10v-212h158v-266h289v266h185v212H457v540" id="P"/><path fill="#c64242" d="M579 20C257 20 58-214 66-551c8-331 182-551 511-551 324 0 514 231 514 572 0 319-198 550-512 550zm-2-888c-169 0-222 141-222 338 0 181 61 317 224 317 170 0 223-137 223-338 0-178-64-317-225-317" id="Q"/><path fill="#c64242" d="M750-692c-1-124-48-174-173-175-81 0-142 35-183 104V0H105v-1082h272l9 125c77-97 181-145 311-145 244 0 342 151 342 403V0H750v-692" id="R"/><g id="f"><use transform="matrix(0.008680555555555554,0,0,0.008680555555555554,0,0)" xlink:href="#L"/><use transform="matrix(0.008680555555555554,0,0,0.008680555555555554,9.513888888888888,0)" xlink:href="#M"/><use transform="matrix(0.008680555555555554,0,0,0.008680555555555554,15.998263888888886,0)" xlink:href="#N"/><use transform="matrix(0.008680555555555554,0,0,0.008680555555555554,20.71180555555555,0)" xlink:href="#O"/><use transform="matrix(0.008680555555555554,0,0,0.008680555555555554,29.98263888888888,0)" xlink:href="#P"/><use transform="matrix(0.008680555555555554,0,0,0.008680555555555554,35.98958333333333,0)" xlink:href="#N"/><use transform="matrix(0.008680555555555554,0,0,0.008680555555555554,40.70312499999999,0)" xlink:href="#Q"/><use transform="matrix(0.008680555555555554,0,0,0.008680555555555554,50.75520833333333,0)" xlink:href="#R"/></g><path fill="#3a414a" d="M449 0H149v-1456h300V0" id="S"/><path fill="#3a414a" d="M741-689c-2-124-40-177-163-178-82 0-141 34-178 102V0H111v-1082h271l9 121c77-94 180-141 311-141 139 0 235 55 287 165 76-110 184-165 325-165 249 0 348 151 348 411V0h-290v-690c-2-123-39-176-163-177-87 0-147 41-180 124l1 743H741v-689" id="T"/><path fill="#3a414a" d="M663-1102c295 0 422 250 422 571 0 300-141 549-420 551-109 0-198-38-265-114v510H111v-1498h268l10 106c70-84 161-126 274-126zm133 550c0-175-53-315-209-315-91 0-153 35-187 104v443c35 71 98 107 189 107 138 0 207-113 207-339" id="U"/><path fill="#3a414a" d="M719-811c-143-24-279 1-319 103V0H111v-1082h273l8 129c74-124 180-175 331-136" id="V"/><path fill="#3a414a" d="M579 20C257 20 58-214 66-551c8-331 182-551 511-551 324 0 514 231 514 572 0 319-198 550-512 550zm-2-888c-169 0-222 141-222 338 0 181 61 317 224 317 170 0 223-137 223-338 0-178-64-317-225-317" id="W"/><path fill="#3a414a" d="M516-353l201-729h302L654 0H378L13-1082h302" id="X"/><g id="g"><use transform="matrix(0.008680555555555554,0,0,0.008680555555555554,0,0)" xlink:href="#S"/><use transform="matrix(0.008680555555555554,0,0,0.008680555555555554,5.182291666666666,0)" xlink:href="#T"/><use transform="matrix(0.008680555555555554,0,0,0.008680555555555554,20.572916666666664,0)" xlink:href="#U"/><use transform="matrix(0.008680555555555554,0,0,0.008680555555555554,30.581597222222218,0)" xlink:href="#V"/><use transform="matrix(0.008680555555555554,0,0,0.008680555555555554,36.753472222222214,0)" xlink:href="#W"/><use transform="matrix(0.008680555555555554,0,0,0.008680555555555554,46.675347222222214,0)" xlink:href="#X"/><use transform="matrix(0.008680555555555554,0,0,0.008680555555555554,55.54687499999999,0)" xlink:href="#I"/></g><path fill="#3a414a" d="M1212-428C1211-131 1004 0 696 0H130v-1456h510c318-1 539 108 539 399 0 155-89 264-208 308 141 33 242 151 241 321zM687-241c132 2 225-65 225-190 0-133-69-203-207-203H430v393h257zm192-786c0-145-86-186-239-186H430v367h222c151-3 227-63 227-181" id="Y"/><path fill="#3a414a" d="M463 20c-241-1-359-147-359-393v-709h289v699c0 113 51 169 154 169 98 0 165-34 202-102v-766h290V0H767l-8-110C688-23 589 20 463 20" id="Z"/><path fill="#3a414a" d="M416 0H126v-1082h290V0zM271-1212c-92 0-162-61-162-150s68-149 162-149c93 0 162 60 162 149s-70 150-162 150" id="aa"/><path fill="#3a414a" d="M416 0H126v-1536h290V0" id="ab"/><g id="h"><use transform="matrix(0.008680555555555554,0,0,0.008680555555555554,0,0)" xlink:href="#Y"/><use transform="matrix(0.008680555555555554,0,0,0.008680555555555554,11.345486111111109,0)" xlink:href="#Z"/><use transform="matrix(0.008680555555555554,0,0,0.008680555555555554,21.29340277777777,0)" xlink:href="#aa"/><use transform="matrix(0.008680555555555554,0,0,0.008680555555555554,26.006944444444436,0)" xlink:href="#ab"/><use transform="matrix(0.008680555555555554,0,0,0.008680555555555554,30.7204861111111,0)" xlink:href="#J"/></g><path fill="#3a414a" d="M522-1456L896-400l372-1056h394V0h-301c-7-379 15-728 30-1085L998 0H792L400-1084c15 357 37 705 30 1084H130v-1456h392" id="ac"/><path fill="#3a414a" d="M552-1102c254-4 435 134 435 383v469c1 103 15 180 43 233V0H738c-13-26-23-58-29-97C639-19 548 20 436 20 238 20 64-113 68-304c5-258 212-357 496-357h133c11-137-29-227-160-227-90 0-156 45-156 131H92c15-231 213-342 460-345zM357-325c0 76 61 124 142 124 88 0 168-45 198-105v-186H589c-152 2-232 51-232 167" id="ad"/><path fill="#3a414a" d="M750-692c-1-124-48-174-173-175-81 0-142 35-183 104V0H105v-1082h272l9 125c77-97 181-145 311-145 244 0 342 151 342 403V0H750v-692" id="ae"/><path fill="#3a414a" d="M457-330c2 83 25 111 111 112 32 0 60-2 85-7V-6c-57 17-115 26-175 26-203 0-310-102-310-307v-583H10v-212h158v-266h289v266h185v212H457v540" id="af"/><g id="i"><use transform="matrix(0.008680555555555554,0,0,0.008680555555555554,0,0)" xlink:href="#ac"/><use transform="matrix(0.008680555555555554,0,0,0.008680555555555554,15.572916666666664,0)" xlink:href="#ad"/><use transform="matrix(0.008680555555555554,0,0,0.008680555555555554,25.104166666666664,0)" xlink:href="#aa"/><use transform="matrix(0.008680555555555554,0,0,0.008680555555555554,29.81770833333333,0)" xlink:href="#ae"/><use transform="matrix(0.008680555555555554,0,0,0.008680555555555554,39.77430555555555,0)" xlink:href="#af"/><use transform="matrix(0.008680555555555554,0,0,0.008680555555555554,45.78124999999999,0)" xlink:href="#ad"/><use transform="matrix(0.008680555555555554,0,0,0.008680555555555554,55.31249999999999,0)" xlink:href="#aa"/><use transform="matrix(0.008680555555555554,0,0,0.008680555555555554,60.02604166666666,0)" xlink:href="#ae"/></g><path fill="#3a414a" d="M416-495c-3 181 88 274 258 274 169 0 257-89 257-266v-969h301v959c3 324-227 517-558 517-328 0-557-188-558-506v-970h300v961" id="ag"/><g id="j"><use transform="matrix(0.008680555555555554,0,0,0.008680555555555554,0,0)" xlink:href="#ag"/><use transform="matrix(0.008680555555555554,0,0,0.008680555555555554,11.701388888888888,0)" xlink:href="#K"/><use transform="matrix(0.008680555555555554,0,0,0.008680555555555554,20.842013888888886,0)" xlink:href="#I"/></g><path fill="#3a414a" d="M130 0v-1456h448c435 14 673 299 665 762-5 285-130 500-319 606C822-31 708 0 581 0H130zm809-685c9-311-79-526-361-528H430v972h145c252-2 356-181 364-444" id="ah"/><path fill="#3a414a" d="M190-1174c-11-296 244-440 544-363l-3 224c-24-6-53-9-88-9-109 0-163 51-163 153v87h215v212H480V0H190v-870H29v-212h161v-92" id="ai"/><g id="k"><use transform="matrix(0.010850694444444444,0,0,0.010850694444444444,0,0)" xlink:href="#ah"/><use transform="matrix(0.010850694444444444,0,0,0.010850694444444444,14.442274305555555,0)" xlink:href="#I"/><use transform="matrix(0.010850694444444444,0,0,0.010850694444444444,26.45399305555556,0)" xlink:href="#ai"/><use transform="matrix(0.010850694444444444,0,0,0.010850694444444444,34.41840277777778,0)" xlink:href="#aa"/><use transform="matrix(0.010850694444444444,0,0,0.010850694444444444,40.310329861111114,0)" xlink:href="#ae"/><use transform="matrix(0.010850694444444444,0,0,0.010850694444444444,52.7560763888889,0)" xlink:href="#aa"/><use transform="matrix(0.010850694444444444,0,0,0.010850694444444444,58.64800347222223,0)" xlink:href="#af"/><use transform="matrix(0.010850694444444444,0,0,0.010850694444444444,66.15668402777779,0)" xlink:href="#aa"/><use transform="matrix(0.010850694444444444,0,0,0.010850694444444444,72.04861111111111,0)" xlink:href="#W"/><use transform="matrix(0.010850694444444444,0,0,0.010850694444444444,84.61371527777779,0)" xlink:href="#ae"/></g><g id="l"><use transform="matrix(0.010850694444444444,0,0,0.010850694444444444,0,0)" xlink:href="#W"/><use transform="matrix(0.010850694444444444,0,0,0.010850694444444444,12.565104166666666,0)" xlink:href="#ai"/></g><g id="m"><use transform="matrix(0.010850694444444444,0,0,0.010850694444444444,0,0)" xlink:href="#ah"/><use transform="matrix(0.010850694444444444,0,0,0.010850694444444444,14.442274305555555,0)" xlink:href="#W"/><use transform="matrix(0.010850694444444444,0,0,0.010850694444444444,27.00737847222222,0)" xlink:href="#ae"/><use transform="matrix(0.010850694444444444,0,0,0.010850694444444444,39.453125,0)" xlink:href="#I"/></g><g id="n"><use transform="matrix(0.010850694444444444,0,0,0.010850694444444444,0,0)" xlink:href="#K"/><use transform="matrix(0.010850694444444444,0,0,0.010850694444444444,11.42578125,0)" xlink:href="#ad"/><use transform="matrix(0.010850694444444444,0,0,0.010850694444444444,23.33984375,0)" xlink:href="#af"/><use transform="matrix(0.010850694444444444,0,0,0.010850694444444444,30.84852430555556,0)" xlink:href="#aa"/><use transform="matrix(0.010850694444444444,0,0,0.010850694444444444,36.74045138888889,0)" xlink:href="#K"/><use transform="matrix(0.010850694444444444,0,0,0.010850694444444444,48.1662326388889,0)" xlink:href="#ai"/><use transform="matrix(0.010850694444444444,0,0,0.010850694444444444,56.13064236111112,0)" xlink:href="#aa"/><use transform="matrix(0.010850694444444444,0,0,0.010850694444444444,62.02256944444445,0)" xlink:href="#I"/><use transform="matrix(0.010850694444444444,0,0,0.010850694444444444,74.03428819444446,0)" xlink:href="#K"/></g><path fill="#3a414a" d="M750-685c-1-124-48-182-173-182-85 0-146 33-184 98V0H104v-1536h289v572c77-92 173-138 289-138 235 0 357 136 357 409V0H750v-685" id="aj"/><g id="o"><use transform="matrix(0.010850694444444444,0,0,0.010850694444444444,0,0)" xlink:href="#af"/><use transform="matrix(0.010850694444444444,0,0,0.010850694444444444,7.508680555555555,0)" xlink:href="#aj"/><use transform="matrix(0.010850694444444444,0,0,0.010850694444444444,19.943576388888886,0)" xlink:href="#I"/><use transform="matrix(0.010850694444444444,0,0,0.010850694444444444,31.95529513888889,0)" xlink:href="#K"/><use transform="matrix(0.010850694444444444,0,0,0.010850694444444444,43.381076388888886,0)" xlink:href="#I"/></g></defs></g></svg>