<svg xmlns="http://www.w3.org/2000/svg" xmlns:xlink="http://www.w3.org/1999/xlink" xmlns:lucid="lucid" width="600" height="601.67"><g transform="translate(-380 -58.33333333333334)" lucid:page-tab-id="0_0"><path d="M720 360c0 22.1-17.9 40-40 40s-40-17.9-40-40 17.9-40 40-40 40 17.9 40 40zM960 360c0 22.1-17.9 40-40 40s-40-17.9-40-40 17.9-40 40-40 40 17.9 40 40z" stroke="#3a414a" stroke-width="3" fill="#e0e5ef"/><path d="M800 326c0-3.3 2.7-6 6-6h68c3.3 0 6 2.7 6 6v68c0 3.3-2.7 6-6 6h-68c-3.3 0-6-2.7-6-6z" stroke="#3a414a" stroke-width="3" fill="#fce1b2"/><path d="M723 360h74" stroke="#3a414a" stroke-width="3" fill="none"/><path d="M723.04 361.5h-1.63l.1-1.48-.05-1.52h1.6zM798.5 361.5h-1.54v-3h1.54z" stroke="#3a414a" stroke-width=".05" fill="#3a414a"/><path d="M801.5 360h56.38M801.54 360H800" stroke="#c54142" stroke-width="3" fill="none"/><path d="M873.64 360l-14.26 4.64v-9.28z" stroke="#c54142" stroke-width="3" fill="#c54142"/><path d="M720 120c0 22.1-17.9 40-40 40s-40-17.9-40-40 17.9-40 40-40 40 17.9 40 40zM480 360c0 22.1-17.9 40-40 40s-40-17.9-40-40 17.9-40 40-40 40 17.9 40 40zM720 600c0 22.1-17.9 40-40 40s-40-17.9-40-40 17.9-40 40-40 40 17.9 40 40z" stroke="#3a414a" stroke-width="3" fill="#e0e5ef"/><path d="M640 166c0-3.3 2.7-6 6-6h68c3.3 0 6 2.7 6 6v68c0 3.3-2.7 6-6 6h-68c-3.3 0-6-2.7-6-6zM480 326c0-3.3 2.7-6 6-6h68c3.3 0 6 2.7 6 6v68c0 3.3-2.7 6-6 6h-68c-3.3 0-6-2.7-6-6zM640 486c0-3.3 2.7-6 6-6h68c3.3 0 6 2.7 6 6v68c0 3.3-2.7 6-6 6h-68c-3.3 0-6-2.7-6-6z" stroke="#3a414a" stroke-width="3" fill="#fce1b2"/><path d="M680 317v-74" stroke="#3a414a" stroke-width="3" fill="none"/><path d="M681.5 318.6l-1.48-.1-1.52.05v-1.6h3zM681.5 243.04h-3v-1.54h3z" stroke="#3a414a" stroke-width=".05" fill="#3a414a"/><path d="M637 360h-74" stroke="#3a414a" stroke-width="3" fill="none"/><path d="M638.5 359.98l.05 1.52h-1.6v-3h1.64zM563.04 361.5h-1.54v-3h1.54z" stroke="#3a414a" stroke-width=".05" fill="#3a414a"/><path d="M680 403v74" stroke="#3a414a" stroke-width="3" fill="none"/><path d="M679.98 401.5l1.52-.05v1.6h-3v-1.64zM681.5 478.5h-3v-1.54h3z" stroke="#3a414a" stroke-width=".05" fill="#3a414a"/><path d="M680 238.5v-57.88M680 238.46V240" stroke="#c54142" stroke-width="3" fill="none"/><path d="M680 164.85l4.64 14.27h-9.28z" stroke="#c54142" stroke-width="3" fill="#c54142"/><path d="M884.85 211.72c-15.62 15.62-40.94 15.62-56.57 0-15.62-15.63-15.62-40.95 0-56.57 15.63-15.62 40.95-15.62 56.57 0 15.62 15.62 15.62 40.94 0 56.57z" stroke="#3a414a" stroke-width="3" fill="#85d783"/><path d="M531.72 211.72c-15.63 15.62-40.95 15.62-56.57 0-15.62-15.63-15.62-40.95 0-56.57 15.62-15.62 40.94-15.62 56.57 0 15.62 15.62 15.62 40.94 0 56.57zM531.72 564.85c-15.63 15.62-40.95 15.62-56.57 0-15.62-15.62-15.62-40.94 0-56.57 15.62-15.62 40.94-15.62 56.57 0 15.62 15.63 15.62 40.95 0 56.57zM884.85 564.85c-15.62 15.62-40.94 15.62-56.57 0-15.62-15.62-15.62-40.94 0-56.57 15.63-15.62 40.95-15.62 56.57 0 15.62 15.63 15.62 40.95 0 56.57z" stroke="#3a414a" stroke-width="3" fill="#e0e5ef"/><path d="M795.76 427.67c2.34-2.34 6.14-2.34 8.48 0l48.1 48.1c2.33 2.33 2.33 6.13 0 8.47l-48.1 48.1c-2.34 2.33-6.14 2.33-8.48 0l-48.1-48.1c-2.33-2.34-2.33-6.14 0-8.48zM555.76 427.67c2.34-2.34 6.14-2.34 8.48 0l48.1 48.1c2.33 2.33 2.33 6.13 0 8.47l-48.1 48.1c-2.34 2.33-6.14 2.33-8.48 0l-48.1-48.1c-2.33-2.34-2.33-6.14 0-8.48zM555.76 187.67c2.34-2.34 6.14-2.34 8.48 0l48.1 48.1c2.33 2.33 2.33 6.13 0 8.47l-48.1 48.1c-2.34 2.33-6.14 2.33-8.48 0l-48.1-48.1c-2.33-2.34-2.33-6.14 0-8.48zM795.76 187.67c2.34-2.34 6.14-2.34 8.48 0l48.1 48.1c2.33 2.33 2.33 6.13 0 8.47l-48.1 48.1c-2.34 2.33-6.14 2.33-8.48 0l-48.1-48.1c-2.33-2.34-2.33-6.14 0-8.48z" stroke="#3a414a" stroke-width="3" fill="#fce1b2"/><path d="M558.5 360h-57.88M558.46 360H560" stroke="#c54142" stroke-width="3" fill="none"/><path d="M484.85 360l14.27-4.64v9.28z" stroke="#c54142" stroke-width="3" fill="#c54142"/><path d="M680 481.5v57.88M680 481.54V480" stroke="#c54142" stroke-width="3" fill="none"/><path d="M680 555.15l-4.64-14.27h9.28z" stroke="#c54142" stroke-width="3" fill="#c54142"/><path d="M590.4 270.4l59.24 59.24" stroke="#3a414a" stroke-width="3" fill="none"/><path d="M591.5 269.37l-2.13 2.12-1.1-1.1 2.14-2.12zM651.8 329.67l-2.17 2.05h-.02l-1.05-1.05 2.12-2.12z" stroke="#3a414a" stroke-width=".05" fill="#3a414a"/><path d="M769.6 270.4l-59.24 59.24" stroke="#3a414a" stroke-width="3" fill="none"/><path d="M771.72 270.4l-1.1 1.1-2.1-2.13 1.07-1.1zM711.45 330.67l-1.12 1.12-2.05-2.17v-.02l1.05-1.05z" stroke="#3a414a" stroke-width=".05" fill="#3a414a"/><path d="M769.6 449.6l-59.24-59.24" stroke="#3a414a" stroke-width="3" fill="none"/><path d="M771.72 449.6l-2.13 2.12-1.1-1.1 2.13-2.1zM711.45 389.33l-2.12 2.12-1.12-1.12 2.17-2.05h.02z" stroke="#3a414a" stroke-width=".05" fill="#3a414a"/><path d="M590.4 449.6l59.24-59.24" stroke="#3a414a" stroke-width="3" fill="none"/><path d="M591.5 450.63l-1.1 1.1-2.12-2.14 1.1-1.1zM651.72 390.37v.02l-1.05 1.05-2.12-2.12 1.12-1.12z" stroke="#3a414a" stroke-width=".05" fill="#3a414a"/><path d="M588.28 268.28l-40.92-40.92" stroke="#c54142" stroke-width="3" fill="none"/><path d="M590.4 268.28l-2.12 2.13-1.08-1.08 2.12-2.12z" stroke="#c54142" stroke-width=".05" fill="#c54142"/><path d="M536.2 216.2l13.37 6.82-6.55 6.55z" stroke="#c54142" stroke-width="3" fill="#c54142"/><path d="M771.72 268.28l40.92-40.92" stroke="#c54142" stroke-width="3" fill="none"/><path d="M772.8 269.32l-1.08 1.1-2.13-2.14 1.08-1.08z" stroke="#c54142" stroke-width=".05" fill="#c54142"/><path d="M823.8 216.2l-6.82 13.37-6.55-6.55z" stroke="#c54142" stroke-width="3" fill="#c54142"/><path d="M588.28 451.72l-40.92 40.92" stroke="#c54142" stroke-width="3" fill="none"/><path d="M590.4 451.72l-1.08 1.08-2.12-2.12 1.08-1.1z" stroke="#c54142" stroke-width=".05" fill="#c54142"/><path d="M536.2 503.8l6.82-13.37 6.55 6.55z" stroke="#c54142" stroke-width="3" fill="#c54142"/><path d="M771.72 451.72l40.92 40.92" stroke="#c54142" stroke-width="3" fill="none"/><path d="M772.8 450.68l-2.12 2.12-1.1-1.08 2.14-2.13z" stroke="#c54142" stroke-width=".05" fill="#c54142"/><path d="M823.8 503.8l-13.37-6.82 6.55-6.55z" stroke="#c54142" stroke-width="3" fill="#c54142"/><path d="M463.43 149.43c0-3.3 2.7-6 6-6h68c3.32 0 6 2.7 6 6v68c0 3.32-2.68 6-6 6h-68c-3.3 0-6-2.68-6-6z" stroke="#000" stroke-opacity="0" stroke-width="3" fill="#fff" fill-opacity="0"/><use xlink:href="#a" transform="matrix(1,0,0,1,468.4314575050762,148.4314575050762) translate(20.32443576388889 42.49131944444444)"/><path d="M640 86c0-3.3 2.7-6 6-6h68c3.3 0 6 2.7 6 6v68c0 3.3-2.7 6-6 6h-68c-3.3 0-6-2.7-6-6z" stroke="#000" stroke-opacity="0" stroke-width="3" fill="#fff" fill-opacity="0"/><use xlink:href="#a" transform="matrix(1,0,0,1,645,85) translate(20.32443576388889 42.49131944444444)"/><path d="M880 326c0-3.3 2.7-6 6-6h68c3.3 0 6 2.7 6 6v68c0 3.3-2.7 6-6 6h-68c-3.3 0-6-2.7-6-6z" stroke="#000" stroke-opacity="0" stroke-width="3" fill="#fff" fill-opacity="0"/><use xlink:href="#a" transform="matrix(1,0,0,1,885,325) translate(20.32443576388889 42.49131944444444)"/><path d="M816.57 502.57c0-3.32 2.68-6 6-6h68c3.3 0 6 2.68 6 6v68c0 3.3-2.7 6-6 6h-68c-3.32 0-6-2.7-6-6z" stroke="#000" stroke-opacity="0" stroke-width="3" fill="#fff" fill-opacity="0"/><use xlink:href="#a" transform="matrix(1,0,0,1,821.5685424949238,501.5685424949238) translate(20.32443576388889 42.49131944444444)"/><path d="M640 566c0-3.3 2.7-6 6-6h68c3.3 0 6 2.7 6 6v68c0 3.3-2.7 6-6 6h-68c-3.3 0-6-2.7-6-6z" stroke="#000" stroke-opacity="0" stroke-width="3" fill="#fff" fill-opacity="0"/><use xlink:href="#a" transform="matrix(1,0,0,1,645,565) translate(20.32443576388889 42.49131944444444)"/><path d="M463.43 502.57c0-3.32 2.7-6 6-6h68c3.32 0 6 2.68 6 6v68c0 3.3-2.68 6-6 6h-68c-3.3 0-6-2.7-6-6z" stroke="#000" stroke-opacity="0" stroke-width="3" fill="#fff" fill-opacity="0"/><use xlink:href="#a" transform="matrix(1,0,0,1,468.4314575050762,501.5685424949238) translate(20.32443576388889 42.49131944444444)"/><path d="M400 326c0-3.3 2.7-6 6-6h68c3.3 0 6 2.7 6 6v68c0 3.3-2.7 6-6 6h-68c-3.3 0-6-2.7-6-6z" stroke="#000" stroke-opacity="0" stroke-width="3" fill="#fff" fill-opacity="0"/><use xlink:href="#a" transform="matrix(1,0,0,1,405,325) translate(20.32443576388889 42.49131944444444)"/><path d="M640 326c0-3.3 2.7-6 6-6h68c3.3 0 6 2.7 6 6v68c0 3.3-2.7 6-6 6h-68c-3.3 0-6-2.7-6-6z" stroke="#000" stroke-opacity="0" stroke-width="3" fill="#fff" fill-opacity="0"/><use xlink:href="#b" transform="matrix(1,0,0,1,645,325) translate(20.899522569444443 42.49131944444444)"/><path d="M400 84.33c0-3.3 2.7-6 6-6h228c3.3 0 6 2.7 6 6v51.34c0 3.3-2.7 6-6 6H406c-3.3 0-6-2.7-6-6z" stroke="#000" stroke-opacity="0" stroke-width="3" fill="#fff" fill-opacity="0"/><use xlink:href="#c" transform="matrix(1,0,0,1,405,83.33333333333334) translate(0 20.616319444444443)"/><use xlink:href="#d" transform="matrix(1,0,0,1,405,83.33333333333334) translate(34.884982638888886 20.616319444444443)"/><use xlink:href="#e" transform="matrix(1,0,0,1,405,83.33333333333334) translate(53.13585069444444 20.616319444444443)"/><use xlink:href="#f" transform="matrix(1,0,0,1,405,83.33333333333334) translate(102.70182291666666 20.616319444444443)"/><path d="M720 582.67c0-3.32 2.7-6 6-6h228c3.3 0 6 2.68 6 6V634c0 3.3-2.7 6-6 6H726c-3.3 0-6-2.7-6-6z" stroke="#000" stroke-opacity="0" stroke-width="3" fill="#fff" fill-opacity="0"/><use xlink:href="#g" transform="matrix(1,0,0,1,725,581.6666666666666) translate(44.93055555555554 53.863039444444446)"/><use xlink:href="#d" transform="matrix(1,0,0,1,725,581.6666666666666) translate(78.66536458333331 53.863039444444446)"/><use xlink:href="#h" transform="matrix(1,0,0,1,725,581.6666666666666) translate(96.91623263888889 53.863039444444446)"/><use xlink:href="#f" transform="matrix(1,0,0,1,725,581.6666666666666) translate(177.39583333333331 53.863039444444446)"/><path d="M400 262.57c0-3.32 2.7-6 6-6h68c3.3 0 6 2.68 6 6v28c0 3.3-2.7 6-6 6h-68c-3.3 0-6-2.7-6-6z" stroke="#000" stroke-opacity="0" stroke-width="3" fill="#fff" fill-opacity="0"/><use xlink:href="#i" transform="matrix(1,0,0,1,405,261.5685424949238) translate(0 21.076388888888886)"/><path d="M400 429.43c0-3.3 2.7-6 6-6h68c3.3 0 6 2.7 6 6v28c0 3.32-2.7 6-6 6h-68c-3.3 0-6-2.68-6-6z" stroke="#000" stroke-opacity="0" stroke-width="3" fill="#fff" fill-opacity="0"/><use xlink:href="#j" transform="matrix(1,0,0,1,405,428.4314575050762) translate(0 20.243055555555554)"/><path d="M481 276.63l4.38.26 5.1.9 4.8 1.48 4.5 2 4.18 2.48 3.83 2.95 3.44 3.38 3.02 3.77 2.57 4.12 1.2 2.6" stroke="#4a5462" stroke-width="2" fill="none"/><path d="M481.08 275.63l-.1 2-.98-.06v-2z" stroke="#4a5462" stroke-width=".05" fill="#4a5462"/><path d="M521.25 315.34l-7.56-12.96 9.05-1.97z" stroke="#4a5462" stroke-width="2" fill="#4a5462"/><path d="M481 443.4l1.74-.05 2.53-.23 2.34-.35 2.2-.47 2.08-.57 1.98-.67 1.88-.78 1.82-.88 1.76-.98 1.72-1.1 1.7-1.23 1.65-1.38 1.63-1.53 1.64-1.72 1.63-1.94 1.64-2.2 1.65-2.5 1.65-2.9 1.67-3.35 1.68-3.96 1.67-4.7 1.64-5.67 1.57-6.94 1.4-8.64 1.04-10.2" stroke="#4a5462" stroke-width="2" fill="none"/><path d="M481.06 444.4l-1.06.03v-2l1-.03z" stroke="#4a5462" stroke-width=".05" fill="#4a5462"/><path d="M525.48 363.23l4.1 14.43-9.26-.34z" stroke="#4a5462" stroke-width="2" fill="#4a5462"/><path d="M816.57 149.43c0-3.3 2.68-6 6-6h68c3.3 0 6 2.7 6 6v68c0 3.32-2.7 6-6 6h-68c-3.32 0-6-2.68-6-6z" stroke="#000" stroke-opacity="0" stroke-width="3" fill="#fff" fill-opacity="0"/><g><use xlink:href="#k" transform="matrix(1,0,0,1,821.5685424949238,148.4314575050762) translate(13.10329861111111 42.49131944444444)"/></g><path d="M720 84.33c0-3.3 2.7-6 6-6h228c3.3 0 6 2.7 6 6v51.34c0 3.3-2.7 6-6 6H726c-3.3 0-6-2.7-6-6z" stroke="#000" stroke-opacity="0" stroke-width="3" fill="#fff" fill-opacity="0"/><g><use xlink:href="#l" transform="matrix(1,0,0,1,725,83.33333333333334) translate(36.65147569444446 20.616319444444443)"/><use xlink:href="#m" transform="matrix(1,0,0,1,725,83.33333333333334) translate(85.9787326388889 20.616319444444443)"/><use xlink:href="#n" transform="matrix(1,0,0,1,725,83.33333333333334) translate(104.22960069444446 20.616319444444443)"/><use xlink:href="#o" transform="matrix(1,0,0,1,725,83.33333333333334) translate(185.96788194444446 20.616319444444443)"/><use xlink:href="#p" transform="matrix(1,0,0,1,725,83.33333333333334) translate(177.39583333333331 46.65798611111111)"/></g><defs><path fill="#3a414a" d="M1314 0h-300L430-958V0H130v-1456h300l585 960v-960h299V0" id="q"/><path fill="#3a414a" d="M658-217c127 0 227-49 227-165 0-57-21-98-60-130-79-64-370-142-463-196-162-95-248-210-248-361 0-280 246-403 537-407 213-3 383 84 467 216 45 69 68 147 68 234H886c0-139-96-211-240-211-129 0-232 55-232 169 0 47 24 87 72 119s117 62 210 90c171 51 295 115 373 191s117 171 117 284c-2 272-237 411-528 404C331 13 78-135 69-458h301c0 161 96 241 288 241" id="r"/><g id="a"><use transform="matrix(0.010850694444444444,0,0,0.010850694444444444,0,0)" xlink:href="#q"/><use transform="matrix(0.010850694444444444,0,0,0.010850694444444444,15.690104166666666,0)" xlink:href="#r"/></g><path fill="#3a414a" d="M687-225c189-1 272-84 286-260h300c-19 311-251 505-586 505C296 20 86-277 86-686c0-466 174-782 605-790 340-6 557 198 584 514H975c-15-183-92-268-284-268-100 0-173 38-225 108-63 84-76 264-76 443 0 157 24 272 72 345s122 109 225 109" id="s"/><g id="b"><use transform="matrix(0.010850694444444444,0,0,0.010850694444444444,0,0)" xlink:href="#s"/><use transform="matrix(0.010850694444444444,0,0,0.010850694444444444,14.539930555555555,0)" xlink:href="#r"/></g><g id="c"><use transform="matrix(0.010850694444444444,0,0,0.010850694444444444,0,0)" xlink:href="#q"/><use transform="matrix(0.010850694444444444,0,0,0.010850694444444444,15.690104166666666,0)" xlink:href="#r"/></g><path fill="#3a414a" d="M1030-746H136v-236h894v236zm0 433H136v-236h894v236" id="t"/><use transform="matrix(0.010850694444444444,0,0,0.010850694444444444,0,0)" xlink:href="#t" id="d"/><path fill="#3a414a" d="M1031-175C952-60 797 20 609 20 287 20 60-206 72-543c12-330 180-559 505-559 309 0 482 214 477 537v118H365c15 134 115 234 263 234 111 0 198-40 261-121zM770-644c5-139-62-226-194-224-130 1-191 97-208 224h402" id="u"/><path fill="#3a414a" d="M1052-393l142-689h279L1197 0H955L750-681 545 0H304L28-1082h279l141 688 198-688h209" id="v"/><g id="e"><use transform="matrix(0.010850694444444444,0,0,0.010850694444444444,0,0)" xlink:href="#q"/><use transform="matrix(0.010850694444444444,0,0,0.010850694444444444,15.690104166666666,0)" xlink:href="#u"/><use transform="matrix(0.010850694444444444,0,0,0.010850694444444444,27.701822916666664,0)" xlink:href="#v"/></g><path fill="#3a414a" d="M457-330c2 83 25 111 111 112 32 0 60-2 85-7V-6c-57 17-115 26-175 26-203 0-310-102-310-307v-583H10v-212h158v-266h289v266h185v212H457v540" id="w"/><path fill="#3a414a" d="M552-1102c254-4 435 134 435 383v469c1 103 15 180 43 233V0H738c-13-26-23-58-29-97C639-19 548 20 436 20 238 20 64-113 68-304c5-258 212-357 496-357h133c11-137-29-227-160-227-90 0-156 45-156 131H92c15-231 213-342 460-345zM357-325c0 76 61 124 142 124 88 0 168-45 198-105v-186H589c-152 2-232 51-232 167" id="x"/><g id="f"><use transform="matrix(0.010850694444444444,0,0,0.010850694444444444,0,0)" xlink:href="#r"/><use transform="matrix(0.010850694444444444,0,0,0.010850694444444444,13.661024305555555,0)" xlink:href="#w"/><use transform="matrix(0.010850694444444444,0,0,0.010850694444444444,21.16970486111111,0)" xlink:href="#x"/><use transform="matrix(0.010850694444444444,0,0,0.010850694444444444,33.083767361111114,0)" xlink:href="#w"/><use transform="matrix(0.010850694444444444,0,0,0.010850694444444444,40.59244791666667,0)" xlink:href="#u"/></g><g id="g"><use transform="matrix(0.010850694444444444,0,0,0.010850694444444444,0,0)" xlink:href="#s"/><use transform="matrix(0.010850694444444444,0,0,0.010850694444444444,14.539930555555555,0)" xlink:href="#r"/></g><path fill="#3a414a" d="M463 20c-241-1-359-147-359-393v-709h289v699c0 113 51 169 154 169 98 0 165-34 202-102v-766h290V0H767l-8-110C688-23 589 20 463 20" id="y"/><path fill="#3a414a" d="M719-811c-143-24-279 1-319 103V0H111v-1082h273l8 129c74-124 180-175 331-136" id="z"/><path fill="#3a414a" d="M750-692c-1-124-48-174-173-175-81 0-142 35-183 104V0H105v-1082h272l9 125c77-97 181-145 311-145 244 0 342 151 342 403V0H750v-692" id="A"/><g id="h"><use transform="matrix(0.010850694444444444,0,0,0.010850694444444444,0,0)" xlink:href="#s"/><use transform="matrix(0.010850694444444444,0,0,0.010850694444444444,14.539930555555555,0)" xlink:href="#y"/><use transform="matrix(0.010850694444444444,0,0,0.010850694444444444,26.97482638888889,0)" xlink:href="#z"/><use transform="matrix(0.010850694444444444,0,0,0.010850694444444444,35.080295138888886,0)" xlink:href="#z"/><use transform="matrix(0.010850694444444444,0,0,0.010850694444444444,42.97960069444444,0)" xlink:href="#u"/><use transform="matrix(0.010850694444444444,0,0,0.010850694444444444,54.99131944444444,0)" xlink:href="#A"/><use transform="matrix(0.010850694444444444,0,0,0.010850694444444444,67.43706597222221,0)" xlink:href="#w"/></g><path fill="#3a414a" d="M1248-1138c106 220 104 603 2 820-91 195-274 338-542 338C281 20 86-300 86-759c0-291 115-515 296-629 182-114 467-115 648 0 94 60 166 141 218 250zM940-344c111-153 110-617 0-765-57-77-133-119-234-119s-177 41-233 118c-64 88-83 240-83 415 0 149 27 264 82 346s133 123 236 123c101 0 176-40 232-118" id="B"/><path fill="#3a414a" d="M663-1102c295 0 423 246 423 571 0 313-131 551-421 551-117 0-211-45-281-135L371 0H111v-1536h289v551c67-78 154-117 263-117zm-71 889c164 0 209-139 205-339-3-189-44-315-207-315-92 0-155 38-190 113v427c35 76 99 114 192 114" id="C"/><path fill="#3a414a" d="M529-185c94 0 168-33 168-114 0-35-18-63-53-83s-91-39-168-55C219-491 90-600 90-765c0-208 203-337 432-337 246 0 451 124 453 349H686c-2-91-62-143-165-143-86 0-151 41-153 117 0 32 16 57 46 77 63 43 257 69 335 100 151 60 229 153 229 291C978-13 554 93 282-28 162-81 60-190 56-344h274c5 106 86 159 199 159" id="D"/><path fill="#3a414a" d="M355-556c-2 203 30 338 206 343 102 3 181-63 182-161h271C1001-128 821 17 566 20 242 24 66-212 66-554c0-320 184-548 498-548 262 0 451 167 450 423H743c-1-108-75-193-184-189-162 6-202 123-204 312" id="E"/><path fill="#3a414a" d="M416 0H126v-1536h290V0" id="F"/><g id="i"><use transform="matrix(0.008680555555555552,0,0,0.008680555555555552,0,0)" xlink:href="#B"/><use transform="matrix(0.008680555555555552,0,0,0.008680555555555552,12.274305555555552,0)" xlink:href="#C"/><use transform="matrix(0.008680555555555552,0,0,0.008680555555555552,22.282986111111104,0)" xlink:href="#D"/><use transform="matrix(0.008680555555555552,0,0,0.008680555555555552,31.4236111111111,0)" xlink:href="#w"/><use transform="matrix(0.008680555555555552,0,0,0.008680555555555552,37.43055555555554,0)" xlink:href="#x"/><use transform="matrix(0.008680555555555552,0,0,0.008680555555555552,46.96180555555555,0)" xlink:href="#E"/><use transform="matrix(0.008680555555555552,0,0,0.008680555555555552,56.23263888888887,0)" xlink:href="#F"/><use transform="matrix(0.008680555555555552,0,0,0.008680555555555552,60.946180555555536,0)" xlink:href="#u"/></g><path fill="#3a414a" d="M1006-595H430V0H130v-1456h948v243H430v376h576v242" id="G"/><path fill="#3a414a" d="M416 0H126v-1082h290V0zM271-1212c-92 0-162-61-162-150s68-149 162-149c93 0 162 60 162 149s-70 150-162 150" id="H"/><path fill="#3a414a" d="M579 20C257 20 58-214 66-551c8-331 182-551 511-551 324 0 514 231 514 572 0 319-198 550-512 550zm-2-888c-169 0-222 141-222 338 0 181 61 317 224 317 170 0 223-137 223-338 0-178-64-317-225-317" id="I"/><g id="j"><use transform="matrix(0.008680555555555554,0,0,0.008680555555555554,0,0)" xlink:href="#G"/><use transform="matrix(0.008680555555555554,0,0,0.008680555555555554,9.513888888888888,0)" xlink:href="#z"/><use transform="matrix(0.008680555555555554,0,0,0.008680555555555554,15.998263888888886,0)" xlink:href="#H"/><use transform="matrix(0.008680555555555554,0,0,0.008680555555555554,20.71180555555555,0)" xlink:href="#E"/><use transform="matrix(0.008680555555555554,0,0,0.008680555555555554,29.98263888888888,0)" xlink:href="#w"/><use transform="matrix(0.008680555555555554,0,0,0.008680555555555554,35.98958333333333,0)" xlink:href="#H"/><use transform="matrix(0.008680555555555554,0,0,0.008680555555555554,40.70312499999999,0)" xlink:href="#I"/><use transform="matrix(0.008680555555555554,0,0,0.008680555555555554,50.75520833333333,0)" xlink:href="#A"/></g><path fill="#3a414a" d="M130 0v-1456h448c435 14 673 299 665 762-5 285-130 500-319 606C822-31 708 0 581 0H130zm809-685c9-311-79-526-361-528H430v972h145c252-2 356-181 364-444" id="J"/><g id="k"><use transform="matrix(0.010850694444444444,0,0,0.010850694444444444,0,0)" xlink:href="#J"/><use transform="matrix(0.010850694444444444,0,0,0.010850694444444444,14.442274305555555,0)" xlink:href="#q"/><use transform="matrix(0.010850694444444444,0,0,0.010850694444444444,30.13237847222222,0)" xlink:href="#r"/></g><g id="l"><use transform="matrix(0.010850694444444444,0,0,0.010850694444444444,0,0)" xlink:href="#J"/><use transform="matrix(0.010850694444444444,0,0,0.010850694444444444,14.442274305555555,0)" xlink:href="#q"/><use transform="matrix(0.010850694444444444,0,0,0.010850694444444444,30.13237847222222,0)" xlink:href="#r"/></g><use transform="matrix(0.010850694444444444,0,0,0.010850694444444444,0,0)" xlink:href="#t" id="m"/><path fill="#3a414a" d="M488 20C204 20 66-234 66-549c0-305 140-551 424-553 105 0 192 39 261 118v-552h290V0H780l-14-115C694-25 601 20 488 20zM355-528c0 176 51 314 207 314 89 0 152-38 189-113v-427c-36-75-98-113-187-113-139 0-209 113-209 339" id="K"/><g id="n"><use transform="matrix(0.010850694444444444,0,0,0.010850694444444444,0,0)" xlink:href="#J"/><use transform="matrix(0.010850694444444444,0,0,0.010850694444444444,14.442274305555555,0)" xlink:href="#u"/><use transform="matrix(0.010850694444444444,0,0,0.010850694444444444,26.45399305555556,0)" xlink:href="#D"/><use transform="matrix(0.010850694444444444,0,0,0.010850694444444444,37.87977430555556,0)" xlink:href="#H"/><use transform="matrix(0.010850694444444444,0,0,0.010850694444444444,43.77170138888889,0)" xlink:href="#z"/><use transform="matrix(0.010850694444444444,0,0,0.010850694444444444,51.67100694444445,0)" xlink:href="#u"/><use transform="matrix(0.010850694444444444,0,0,0.010850694444444444,63.68272569444445,0)" xlink:href="#K"/></g><g id="o"><use transform="matrix(0.010850694444444444,0,0,0.010850694444444444,0,0)" xlink:href="#q"/><use transform="matrix(0.010850694444444444,0,0,0.010850694444444444,15.690104166666666,0)" xlink:href="#u"/><use transform="matrix(0.010850694444444444,0,0,0.010850694444444444,27.701822916666664,0)" xlink:href="#v"/></g><g id="p"><use transform="matrix(0.010850694444444444,0,0,0.010850694444444444,0,0)" xlink:href="#r"/><use transform="matrix(0.010850694444444444,0,0,0.010850694444444444,13.661024305555555,0)" xlink:href="#w"/><use transform="matrix(0.010850694444444444,0,0,0.010850694444444444,21.16970486111111,0)" xlink:href="#x"/><use transform="matrix(0.010850694444444444,0,0,0.010850694444444444,33.083767361111114,0)" xlink:href="#w"/><use transform="matrix(0.010850694444444444,0,0,0.010850694444444444,40.59244791666667,0)" xlink:href="#u"/></g></defs></g></svg>