<svg xmlns="http://www.w3.org/2000/svg" xmlns:xlink="http://www.w3.org/1999/xlink" xmlns:lucid="lucid" width="360" height="400"><g transform="translate(-380 -380)" lucid:page-tab-id="0_0"><path d="M720 640c0 22.1-17.9 40-40 40s-40-17.9-40-40 17.9-40 40-40 40 17.9 40 40zM560 606c0-3.3 2.7-6 6-6h68c3.3 0 6 2.7 6 6v68c0 3.3-2.7 6-6 6h-68c-3.3 0-6-2.7-6-6z" stroke="#3a414a" stroke-width="3" fill="#85d783"/><path d="M480 640c0 22.1-17.9 40-40 40s-40-17.9-40-40 17.9-40 40-40 40 17.9 40 40z" stroke="#3a414a" stroke-width="3" fill="#e0e5ef"/><path d="M483 640h74" stroke="#3a414a" stroke-width="3" fill="none"/><path d="M483.04 641.5h-1.63l.1-1.48-.05-1.52h1.6zM558.5 641.5h-1.54v-3h1.54z" stroke="#3a414a" stroke-width=".05" fill="#3a414a"/><path d="M561.5 640h56.38M561.54 640H560" stroke="#fce1b2" stroke-width="3" fill="none"/><path d="M633.64 640l-14.26 4.64v-9.28z" stroke="#fce1b2" stroke-width="3" fill="#fce1b2"/><path d="M480 440c0 22.1-17.9 40-40 40s-40-17.9-40-40 17.9-40 40-40 40 17.9 40 40z" stroke="#3a414a" stroke-width="3" fill="#e0e5ef"/><path d="M720 440c0 22.1-17.9 40-40 40s-40-17.9-40-40 17.9-40 40-40 40 17.9 40 40z" stroke="#3a414a" stroke-width="3" fill="#85d783"/><path d="M560 406c0-3.3 2.7-6 6-6h68c3.3 0 6 2.7 6 6v68c0 3.3-2.7 6-6 6h-68c-3.3 0-6-2.7-6-6z" stroke="#3a414a" stroke-width="3" fill="#fce1b2"/><path d="M483 440h74" stroke="#3a414a" stroke-width="3" fill="none"/><path d="M483.04 441.5h-1.63l.1-1.48-.05-1.52h1.6zM558.5 441.5h-1.54v-3h1.54z" stroke="#3a414a" stroke-width=".05" fill="#3a414a"/><path d="M561.5 440h56.38M561.54 440H560" stroke="#c54142" stroke-width="3" fill="none"/><path d="M633.64 440l-14.26 4.64v-9.28z" stroke="#c54142" stroke-width="3" fill="#c54142"/><path d="M400 506c0-3.3 2.7-6 6-6h308c3.3 0 6 2.7 6 6v48c0 3.3-2.7 6-6 6H406c-3.3 0-6-2.7-6-6z" stroke="#000" stroke-opacity="0" fill="#fff" fill-opacity="0"/><use xlink:href="#a" transform="matrix(1,0,0,1,405,505) translate(63.810763888888886 33.11631944444444)"/><use xlink:href="#b" transform="matrix(1,0,0,1,405,505) translate(161.92274305555554 33.11631944444444)"/><path d="M400 706c0-3.3 2.7-6 6-6h308c3.3 0 6 2.7 6 6v48c0 3.3-2.7 6-6 6H406c-3.3 0-6-2.7-6-6z" stroke="#000" stroke-opacity="0" fill="#fff" fill-opacity="0"/><use xlink:href="#c" transform="matrix(1,0,0,1,405,705) translate(76.22938368055554 33.11631944444444)"/><use xlink:href="#b" transform="matrix(1,0,0,1,405,705) translate(149.50412326388889 33.11631944444444)"/><defs><path fill="#3a414a" d="M416-495c-3 181 88 274 258 274 169 0 257-89 257-266v-969h301v959c3 324-227 517-558 517-328 0-557-188-558-506v-970h300v961" id="d"/><path fill="#3a414a" d="M750-692c-1-124-48-174-173-175-81 0-142 35-183 104V0H105v-1082h272l9 125c77-97 181-145 311-145 244 0 342 151 342 403V0H750v-692" id="e"/><path fill="#3a414a" d="M529-185c94 0 168-33 168-114 0-35-18-63-53-83s-91-39-168-55C219-491 90-600 90-765c0-208 203-337 432-337 246 0 451 124 453 349H686c-2-91-62-143-165-143-86 0-151 41-153 117 0 32 16 57 46 77 63 43 257 69 335 100 151 60 229 153 229 291C978-13 554 93 282-28 162-81 60-190 56-344h274c5 106 86 159 199 159" id="f"/><path fill="#3a414a" d="M579 20C257 20 58-214 66-551c8-331 182-551 511-551 324 0 514 231 514 572 0 319-198 550-512 550zm-2-888c-169 0-222 141-222 338 0 181 61 317 224 317 170 0 223-137 223-338 0-178-64-317-225-317" id="g"/><path fill="#3a414a" d="M416 0H126v-1536h290V0" id="h"/><path fill="#3a414a" d="M516-353l201-729h302L654 0H378L13-1082h302" id="i"/><path fill="#3a414a" d="M1031-175C952-60 797 20 609 20 287 20 60-206 72-543c12-330 180-559 505-559 309 0 482 214 477 537v118H365c15 134 115 234 263 234 111 0 198-40 261-121zM770-644c5-139-62-226-194-224-130 1-191 97-208 224h402" id="j"/><path fill="#3a414a" d="M488 20C204 20 66-234 66-549c0-305 140-551 424-553 105 0 192 39 261 118v-552h290V0H780l-14-115C694-25 601 20 488 20zM355-528c0 176 51 314 207 314 89 0 152-38 189-113v-427c-36-75-98-113-187-113-139 0-209 113-209 339" id="k"/><g id="a"><use transform="matrix(0.010850694444444444,0,0,0.010850694444444444,0,0)" xlink:href="#d"/><use transform="matrix(0.010850694444444444,0,0,0.010850694444444444,14.62673611111111,0)" xlink:href="#e"/><use transform="matrix(0.010850694444444444,0,0,0.010850694444444444,27.07248263888889,0)" xlink:href="#f"/><use transform="matrix(0.010850694444444444,0,0,0.010850694444444444,38.498263888888886,0)" xlink:href="#g"/><use transform="matrix(0.010850694444444444,0,0,0.010850694444444444,51.06336805555556,0)" xlink:href="#h"/><use transform="matrix(0.010850694444444444,0,0,0.010850694444444444,56.955295138888886,0)" xlink:href="#i"/><use transform="matrix(0.010850694444444444,0,0,0.010850694444444444,68.04470486111111,0)" xlink:href="#j"/><use transform="matrix(0.010850694444444444,0,0,0.010850694444444444,80.05642361111111,0)" xlink:href="#k"/></g><path fill="#3a414a" d="M1245-974c0 302-233 466-552 461H430V0H130v-1456h568c323 5 547 167 547 482zm-303 2c1-143-93-241-237-241H430v457h268c151 1 244-71 244-216" id="l"/><path fill="#3a414a" d="M719-811c-143-24-279 1-319 103V0H111v-1082h273l8 129c74-124 180-175 331-136" id="m"/><path fill="#3a414a" d="M663-1102c295 0 423 246 423 571 0 313-131 551-421 551-117 0-211-45-281-135L371 0H111v-1536h289v551c67-78 154-117 263-117zm-71 889c164 0 209-139 205-339-3-189-44-315-207-315-92 0-155 38-190 113v427c35 76 99 114 192 114" id="n"/><path fill="#3a414a" d="M741-689c-2-124-40-177-163-178-82 0-141 34-178 102V0H111v-1082h271l9 121c77-94 180-141 311-141 139 0 235 55 287 165 76-110 184-165 325-165 249 0 348 151 348 411V0h-290v-690c-2-123-39-176-163-177-87 0-147 41-180 124l1 743H741v-689" id="o"/><g id="b"><use transform="matrix(0.010850694444444444,0,0,0.010850694444444444,0,0)" xlink:href="#l"/><use transform="matrix(0.010850694444444444,0,0,0.010850694444444444,14.33376736111111,0)" xlink:href="#m"/><use transform="matrix(0.010850694444444444,0,0,0.010850694444444444,22.04861111111111,0)" xlink:href="#g"/><use transform="matrix(0.010850694444444444,0,0,0.010850694444444444,34.61371527777778,0)" xlink:href="#n"/><use transform="matrix(0.010850694444444444,0,0,0.010850694444444444,47.12456597222222,0)" xlink:href="#h"/><use transform="matrix(0.010850694444444444,0,0,0.010850694444444444,53.01649305555556,0)" xlink:href="#j"/><use transform="matrix(0.010850694444444444,0,0,0.010850694444444444,65.02821180555556,0)" xlink:href="#o"/></g><path fill="#3a414a" d="M658-217c127 0 227-49 227-165 0-57-21-98-60-130-79-64-370-142-463-196-162-95-248-210-248-361 0-280 246-403 537-407 213-3 383 84 467 216 45 69 68 147 68 234H886c0-139-96-211-240-211-129 0-232 55-232 169 0 47 24 87 72 119s117 62 210 90c171 51 295 115 373 191s117 171 117 284c-2 272-237 411-528 404C331 13 78-135 69-458h301c0 161 96 241 288 241" id="p"/><g id="c"><use transform="matrix(0.010850694444444444,0,0,0.010850694444444444,0,0)" xlink:href="#p"/><use transform="matrix(0.010850694444444444,0,0,0.010850694444444444,13.661024305555555,0)" xlink:href="#g"/><use transform="matrix(0.010850694444444444,0,0,0.010850694444444444,26.22612847222222,0)" xlink:href="#h"/><use transform="matrix(0.010850694444444444,0,0,0.010850694444444444,32.11805555555556,0)" xlink:href="#i"/><use transform="matrix(0.010850694444444444,0,0,0.010850694444444444,43.20746527777778,0)" xlink:href="#j"/><use transform="matrix(0.010850694444444444,0,0,0.010850694444444444,55.21918402777778,0)" xlink:href="#k"/></g></defs></g></svg>