<svg xmlns="http://www.w3.org/2000/svg" xmlns:xlink="http://www.w3.org/1999/xlink" xmlns:lucid="lucid" width="800" height="358.71"><g transform="translate(-220 -322.5806451612903)" lucid:page-tab-id="0_0"><path d="M436.13 440.65c0 54.15-43.9 98.06-98.07 98.06-54.16 0-98.06-43.9-98.06-98.05 0-54.16 43.9-98.07 98.06-98.07 54.16 0 98.07 43.9 98.07 98.07z" stroke="#3a414a" stroke-width="3" fill="#e0e5ef"/><use xlink:href="#a" transform="matrix(1,0,0,1,245,347.5806451612903) translate(26.958116319444443 90.74131944444444)"/><use xlink:href="#b" transform="matrix(1,0,0,1,245,347.5806451612903) translate(107.43771701388889 90.74131944444444)"/><use xlink:href="#c" transform="matrix(1,0,0,1,245,347.5806451612903) translate(51.463541666666664 116.7829861111111)"/><use xlink:href="#d" transform="matrix(1,0,0,1,245,347.5806451612903) translate(77.52690972222223 116.7829861111111)"/><path d="M1000 440.65c0 54.15-43.9 98.06-98.06 98.06-54.16 0-98.07-43.9-98.07-98.05 0-54.16 43.9-98.07 98.07-98.07 54.16 0 98.06 43.9 98.06 98.07z" stroke="#3a414a" stroke-width="3" fill="#84d784"/><use xlink:href="#e" transform="matrix(1,0,0,1,808.8709677419356,347.5806451612903) translate(55.402786458333324 73.21006944444444)"/><use xlink:href="#f" transform="matrix(1,0,0,1,808.8709677419356,347.5806451612903) translate(42.41493055555556 99.2517361111111)"/><use xlink:href="#g" transform="matrix(1,0,0,1,808.8709677419356,347.5806451612903) translate(91.98090277777777 99.2517361111111)"/><use xlink:href="#h" transform="matrix(1,0,0,1,808.8709677419356,347.5806451612903) translate(51.46854166666666 125.29340277777776)"/><use xlink:href="#i" transform="matrix(1,0,0,1,808.8709677419356,347.5806451612903) translate(77.53190972222222 125.29340277777776)"/><path d="M607.74 348.58c0-3.3 2.7-6 6-6h184.13c3.3 0 6 2.7 6 6V532.7c0 3.32-2.7 6-6 6H613.74c-3.3 0-6-2.68-6-6z" stroke="#3a414a" stroke-width="3" fill="#fce1b2"/><path d="M439.13 440.65h165.6" stroke="#4b5563" stroke-width="3" fill="none"/><path d="M439.17 442.15h-1.58l.03-1.5-.03-1.5h1.57zM606.24 442.15h-1.54v-3h1.54z" stroke="#4b5563" stroke-width=".05" fill="#4b5563"/><path d="M374.84 593.74c0-3.3 2.7-6 6-6h159.6c3.33 0 6 2.7 6 6v61.55c0 3.3-2.67 6-6 6h-159.6c-3.3 0-6-2.7-6-6z" stroke="#000" stroke-opacity="0" fill="#fff" fill-opacity="0"/><use xlink:href="#j" transform="matrix(1,0,0,1,379.83870967741933,592.741935483871) translate(36.90277777777778 40.61631944444444)"/><path d="M803.87 593.74c0-3.3 2.7-6 6-6h135.1c3.3 0 6 2.7 6 6v61.55c0 3.3-2.7 6-6 6h-135.1c-3.3 0-6-2.7-6-6z" stroke="#000" stroke-opacity="0" fill="#fff" fill-opacity="0"/><use xlink:href="#k" transform="matrix(1,0,0,1,808.8709677419356,592.741935483871) translate(31.05512152777778 40.61631944444444)"/><path d="M607.74 440.65h174M606.24 440.65" stroke="#c64242" stroke-width="3" fill="none"/><path d="M797.52 440.65l-14.27 4.63V436z" stroke="#c64242" stroke-width="3" fill="#c64242"/><path d="M802.37 624.5l-2.6-.07-3.85-.24-3.63-.4-3.44-.5-3.27-.62-3.14-.73-3-.84-2.87-.92-2.8-1.04-2.7-1.13-2.6-1.22-2.56-1.34-2.5-1.44-2.44-1.56-2.4-1.67-2.4-1.8-2.34-1.95-2.33-2.1-2.32-2.27-2.3-2.46-2.3-2.68-2.3-2.9-2.32-3.2-2.3-3.48-2.34-3.85-2.34-4.27-2.36-4.75-2.37-5.32-2.37-6-2.37-6.83-2.36-7.82-2.32-9.06-2.26-10.63-2.14-12.63-1.93-15.34-1.6-19.14-.84-21.04" stroke="#4b5563" stroke-width="3" fill="none"/><path d="M803.87 623.02v3l-1.57-.04.06-3z" stroke="#4b5563" stroke-width=".05" fill="#4b5563"/><path d="M709.83 445.5l4.87 14.2-9.27.14z" stroke="#4b5563" stroke-width="3" fill="#4b5563"/><path d="M547.95 624.48l8.06-.16 9.34-.6 8.93-.93 8.43-1.25 7.88-1.5 7.3-1.7 6.7-1.88 6.14-2 5.62-2.08 5.13-2.17 4.7-2.2 4.27-2.24 3.92-2.27 3.58-2.28 3.3-2.28 3-2.3 2.8-2.3 2.54-2.3 2.36-2.3 2.17-2.3 2.02-2.33 1.86-2.35 1.7-2.36 1.6-2.38 1.45-2.4 1.34-2.45 1.23-2.47 1.13-2.53 1.02-2.58.92-2.64.72-2.4" stroke="#4b5563" stroke-width="3" fill="none"/><path d="M548.02 625.98l-1.57.04v-3l1.5-.04z" stroke="#4b5563" stroke-width=".05" fill="#4b5563"/><path d="M671.2 545.02l2.68 14.76-9.2-1.24z" stroke="#4b5563" stroke-width="3" fill="#4b5563"/><path d="M436.13 397.6c0-3.3 2.7-6 6-6h159.6c3.33 0 6 2.7 6 6v37.05c0 3.3-2.67 6-6 6h-159.6c-3.3 0-6-2.7-6-6z" stroke="#000" stroke-opacity="0" fill="#fff" fill-opacity="0"/><g><use xlink:href="#l" transform="matrix(1,0,0,1,441.12903225806457,396.61290322580646) translate(30.544270833333336 28.116319444444443)"/></g><defs><path fill="#1e293b" d="M687-225c189-1 272-84 286-260h300c-19 311-251 505-586 505C296 20 86-277 86-686c0-466 174-782 605-790 340-6 557 198 584 514H975c-15-183-92-268-284-268-100 0-173 38-225 108-63 84-76 264-76 443 0 157 24 272 72 345s122 109 225 109" id="m"/><path fill="#1e293b" d="M463 20c-241-1-359-147-359-393v-709h289v699c0 113 51 169 154 169 98 0 165-34 202-102v-766h290V0H767l-8-110C688-23 589 20 463 20" id="n"/><path fill="#1e293b" d="M719-811c-143-24-279 1-319 103V0H111v-1082h273l8 129c74-124 180-175 331-136" id="o"/><path fill="#1e293b" d="M1031-175C952-60 797 20 609 20 287 20 60-206 72-543c12-330 180-559 505-559 309 0 482 214 477 537v118H365c15 134 115 234 263 234 111 0 198-40 261-121zM770-644c5-139-62-226-194-224-130 1-191 97-208 224h402" id="p"/><path fill="#1e293b" d="M750-692c-1-124-48-174-173-175-81 0-142 35-183 104V0H105v-1082h272l9 125c77-97 181-145 311-145 244 0 342 151 342 403V0H750v-692" id="q"/><path fill="#1e293b" d="M457-330c2 83 25 111 111 112 32 0 60-2 85-7V-6c-57 17-115 26-175 26-203 0-310-102-310-307v-583H10v-212h158v-266h289v266h185v212H457v540" id="r"/><g id="a"><use transform="matrix(0.010850694444444444,0,0,0.010850694444444444,0,0)" xlink:href="#m"/><use transform="matrix(0.010850694444444444,0,0,0.010850694444444444,14.539930555555555,0)" xlink:href="#n"/><use transform="matrix(0.010850694444444444,0,0,0.010850694444444444,26.97482638888889,0)" xlink:href="#o"/><use transform="matrix(0.010850694444444444,0,0,0.010850694444444444,35.080295138888886,0)" xlink:href="#o"/><use transform="matrix(0.010850694444444444,0,0,0.010850694444444444,42.97960069444444,0)" xlink:href="#p"/><use transform="matrix(0.010850694444444444,0,0,0.010850694444444444,54.99131944444444,0)" xlink:href="#q"/><use transform="matrix(0.010850694444444444,0,0,0.010850694444444444,67.43706597222221,0)" xlink:href="#r"/></g><path fill="#1e293b" d="M658-217c127 0 227-49 227-165 0-57-21-98-60-130-79-64-370-142-463-196-162-95-248-210-248-361 0-280 246-403 537-407 213-3 383 84 467 216 45 69 68 147 68 234H886c0-139-96-211-240-211-129 0-232 55-232 169 0 47 24 87 72 119s117 62 210 90c171 51 295 115 373 191s117 171 117 284c-2 272-237 411-528 404C331 13 78-135 69-458h301c0 161 96 241 288 241" id="s"/><path fill="#1e293b" d="M552-1102c254-4 435 134 435 383v469c1 103 15 180 43 233V0H738c-13-26-23-58-29-97C639-19 548 20 436 20 238 20 64-113 68-304c5-258 212-357 496-357h133c11-137-29-227-160-227-90 0-156 45-156 131H92c15-231 213-342 460-345zM357-325c0 76 61 124 142 124 88 0 168-45 198-105v-186H589c-152 2-232 51-232 167" id="t"/><g id="b"><use transform="matrix(0.010850694444444444,0,0,0.010850694444444444,0,0)" xlink:href="#s"/><use transform="matrix(0.010850694444444444,0,0,0.010850694444444444,13.661024305555555,0)" xlink:href="#r"/><use transform="matrix(0.010850694444444444,0,0,0.010850694444444444,21.16970486111111,0)" xlink:href="#t"/><use transform="matrix(0.010850694444444444,0,0,0.010850694444444444,33.083767361111114,0)" xlink:href="#r"/><use transform="matrix(0.010850694444444444,0,0,0.010850694444444444,40.59244791666667,0)" xlink:href="#p"/></g><path fill="#1e293b" d="M579 20C257 20 58-214 66-551c8-331 182-551 511-551 324 0 514 231 514 572 0 319-198 550-512 550zm-2-888c-169 0-222 141-222 338 0 181 61 317 224 317 170 0 223-137 223-338 0-178-64-317-225-317" id="u"/><path fill="#1e293b" d="M190-1174c-11-296 244-440 544-363l-3 224c-24-6-53-9-88-9-109 0-163 51-163 153v87h215v212H480V0H190v-870H29v-212h161v-92" id="v"/><g id="c"><use transform="matrix(0.010850694444444444,0,0,0.010850694444444444,0,0)" xlink:href="#u"/><use transform="matrix(0.010850694444444444,0,0,0.010850694444444444,12.565104166666666,0)" xlink:href="#v"/></g><path fill="#1e293b" d="M1006-631H430v390h676V0H130v-1456h974v243H430v347h576v235" id="w"/><path fill="#1e293b" d="M416 0H126v-1082h290V0zM271-1212c-92 0-162-61-162-150s68-149 162-149c93 0 162 60 162 149s-70 150-162 150" id="x"/><path fill="#1e293b" d="M515-409l200-673h310L590 168c-66 202-236 321-472 250V199c127 7 198-15 230-107l34-89L3-1082h311" id="y"/><g id="d"><use transform="matrix(0.010850694444444444,0,0,0.010850694444444444,0,0)" xlink:href="#w"/><use transform="matrix(0.010850694444444444,0,0,0.010850694444444444,12.5,0)" xlink:href="#q"/><use transform="matrix(0.010850694444444444,0,0,0.010850694444444444,24.94574652777778,0)" xlink:href="#r"/><use transform="matrix(0.010850694444444444,0,0,0.010850694444444444,32.454427083333336,0)" xlink:href="#x"/><use transform="matrix(0.010850694444444444,0,0,0.010850694444444444,38.34635416666667,0)" xlink:href="#r"/><use transform="matrix(0.010850694444444444,0,0,0.010850694444444444,45.85503472222223,0)" xlink:href="#y"/></g><path fill="#1e293b" d="M130 0v-1456h448c435 14 673 299 665 762-5 285-130 500-319 606C822-31 708 0 581 0H130zm809-685c9-311-79-526-361-528H430v972h145c252-2 356-181 364-444" id="z"/><path fill="#1e293b" d="M529-185c94 0 168-33 168-114 0-35-18-63-53-83s-91-39-168-55C219-491 90-600 90-765c0-208 203-337 432-337 246 0 451 124 453 349H686c-2-91-62-143-165-143-86 0-151 41-153 117 0 32 16 57 46 77 63 43 257 69 335 100 151 60 229 153 229 291C978-13 554 93 282-28 162-81 60-190 56-344h274c5 106 86 159 199 159" id="A"/><path fill="#1e293b" d="M488 20C204 20 66-234 66-549c0-305 140-551 424-553 105 0 192 39 261 118v-552h290V0H780l-14-115C694-25 601 20 488 20zM355-528c0 176 51 314 207 314 89 0 152-38 189-113v-427c-36-75-98-113-187-113-139 0-209 113-209 339" id="B"/><g id="e"><use transform="matrix(0.010850694444444444,0,0,0.010850694444444444,0,0)" xlink:href="#z"/><use transform="matrix(0.010850694444444444,0,0,0.010850694444444444,14.442274305555555,0)" xlink:href="#p"/><use transform="matrix(0.010850694444444444,0,0,0.010850694444444444,26.45399305555556,0)" xlink:href="#A"/><use transform="matrix(0.010850694444444444,0,0,0.010850694444444444,37.87977430555556,0)" xlink:href="#x"/><use transform="matrix(0.010850694444444444,0,0,0.010850694444444444,43.77170138888889,0)" xlink:href="#o"/><use transform="matrix(0.010850694444444444,0,0,0.010850694444444444,51.67100694444445,0)" xlink:href="#p"/><use transform="matrix(0.010850694444444444,0,0,0.010850694444444444,63.68272569444445,0)" xlink:href="#B"/></g><path fill="#1e293b" d="M1314 0h-300L430-958V0H130v-1456h300l585 960v-960h299V0" id="C"/><path fill="#1e293b" d="M1052-393l142-689h279L1197 0H955L750-681 545 0H304L28-1082h279l141 688 198-688h209" id="D"/><g id="f"><use transform="matrix(0.010850694444444444,0,0,0.010850694444444444,0,0)" xlink:href="#C"/><use transform="matrix(0.010850694444444444,0,0,0.010850694444444444,15.690104166666666,0)" xlink:href="#p"/><use transform="matrix(0.010850694444444444,0,0,0.010850694444444444,27.701822916666664,0)" xlink:href="#D"/></g><g id="g"><use transform="matrix(0.010850694444444444,0,0,0.010850694444444444,0,0)" xlink:href="#s"/><use transform="matrix(0.010850694444444444,0,0,0.010850694444444444,13.661024305555555,0)" xlink:href="#r"/><use transform="matrix(0.010850694444444444,0,0,0.010850694444444444,21.16970486111111,0)" xlink:href="#t"/><use transform="matrix(0.010850694444444444,0,0,0.010850694444444444,33.083767361111114,0)" xlink:href="#r"/><use transform="matrix(0.010850694444444444,0,0,0.010850694444444444,40.59244791666667,0)" xlink:href="#p"/></g><g id="h"><use transform="matrix(0.010850694444444444,0,0,0.010850694444444444,0,0)" xlink:href="#u"/><use transform="matrix(0.010850694444444444,0,0,0.010850694444444444,12.565104166666666,0)" xlink:href="#v"/></g><g id="i"><use transform="matrix(0.010850694444444444,0,0,0.010850694444444444,0,0)" xlink:href="#w"/><use transform="matrix(0.010850694444444444,0,0,0.010850694444444444,12.5,0)" xlink:href="#q"/><use transform="matrix(0.010850694444444444,0,0,0.010850694444444444,24.94574652777778,0)" xlink:href="#r"/><use transform="matrix(0.010850694444444444,0,0,0.010850694444444444,32.454427083333336,0)" xlink:href="#x"/><use transform="matrix(0.010850694444444444,0,0,0.010850694444444444,38.34635416666667,0)" xlink:href="#r"/><use transform="matrix(0.010850694444444444,0,0,0.010850694444444444,45.85503472222223,0)" xlink:href="#y"/></g><path fill="#444d5d" d="M1248-1138c106 220 104 603 2 820-91 195-274 338-542 338C281 20 86-300 86-759c0-291 115-515 296-629 182-114 467-115 648 0 94 60 166 141 218 250zM940-344c111-153 110-617 0-765-57-77-133-119-234-119s-177 41-233 118c-64 88-83 240-83 415 0 149 27 264 82 346s133 123 236 123c101 0 176-40 232-118" id="E"/><path fill="#444d5d" d="M663-1102c295 0 423 246 423 571 0 313-131 551-421 551-117 0-211-45-281-135L371 0H111v-1536h289v551c67-78 154-117 263-117zm-71 889c164 0 209-139 205-339-3-189-44-315-207-315-92 0-155 38-190 113v427c35 76 99 114 192 114" id="F"/><path fill="#444d5d" d="M529-185c94 0 168-33 168-114 0-35-18-63-53-83s-91-39-168-55C219-491 90-600 90-765c0-208 203-337 432-337 246 0 451 124 453 349H686c-2-91-62-143-165-143-86 0-151 41-153 117 0 32 16 57 46 77 63 43 257 69 335 100 151 60 229 153 229 291C978-13 554 93 282-28 162-81 60-190 56-344h274c5 106 86 159 199 159" id="G"/><path fill="#444d5d" d="M457-330c2 83 25 111 111 112 32 0 60-2 85-7V-6c-57 17-115 26-175 26-203 0-310-102-310-307v-583H10v-212h158v-266h289v266h185v212H457v540" id="H"/><path fill="#444d5d" d="M552-1102c254-4 435 134 435 383v469c1 103 15 180 43 233V0H738c-13-26-23-58-29-97C639-19 548 20 436 20 238 20 64-113 68-304c5-258 212-357 496-357h133c11-137-29-227-160-227-90 0-156 45-156 131H92c15-231 213-342 460-345zM357-325c0 76 61 124 142 124 88 0 168-45 198-105v-186H589c-152 2-232 51-232 167" id="I"/><path fill="#444d5d" d="M355-556c-2 203 30 338 206 343 102 3 181-63 182-161h271C1001-128 821 17 566 20 242 24 66-212 66-554c0-320 184-548 498-548 262 0 451 167 450 423H743c-1-108-75-193-184-189-162 6-202 123-204 312" id="J"/><path fill="#444d5d" d="M416 0H126v-1536h290V0" id="K"/><path fill="#444d5d" d="M1031-175C952-60 797 20 609 20 287 20 60-206 72-543c12-330 180-559 505-559 309 0 482 214 477 537v118H365c15 134 115 234 263 234 111 0 198-40 261-121zM770-644c5-139-62-226-194-224-130 1-191 97-208 224h402" id="L"/><g id="j"><use transform="matrix(0.010850694444444444,0,0,0.010850694444444444,0,0)" xlink:href="#E"/><use transform="matrix(0.010850694444444444,0,0,0.010850694444444444,15.342881944444445,0)" xlink:href="#F"/><use transform="matrix(0.010850694444444444,0,0,0.010850694444444444,27.85373263888889,0)" xlink:href="#G"/><use transform="matrix(0.010850694444444444,0,0,0.010850694444444444,39.279513888888886,0)" xlink:href="#H"/><use transform="matrix(0.010850694444444444,0,0,0.010850694444444444,46.78819444444444,0)" xlink:href="#I"/><use transform="matrix(0.010850694444444444,0,0,0.010850694444444444,58.70225694444444,0)" xlink:href="#J"/><use transform="matrix(0.010850694444444444,0,0,0.010850694444444444,70.29079861111111,0)" xlink:href="#K"/><use transform="matrix(0.010850694444444444,0,0,0.010850694444444444,76.18272569444444,0)" xlink:href="#L"/></g><path fill="#444d5d" d="M1006-595H430V0H130v-1456h948v243H430v376h576v242" id="M"/><path fill="#444d5d" d="M719-811c-143-24-279 1-319 103V0H111v-1082h273l8 129c74-124 180-175 331-136" id="N"/><path fill="#444d5d" d="M416 0H126v-1082h290V0zM271-1212c-92 0-162-61-162-150s68-149 162-149c93 0 162 60 162 149s-70 150-162 150" id="O"/><path fill="#444d5d" d="M579 20C257 20 58-214 66-551c8-331 182-551 511-551 324 0 514 231 514 572 0 319-198 550-512 550zm-2-888c-169 0-222 141-222 338 0 181 61 317 224 317 170 0 223-137 223-338 0-178-64-317-225-317" id="P"/><path fill="#444d5d" d="M750-692c-1-124-48-174-173-175-81 0-142 35-183 104V0H105v-1082h272l9 125c77-97 181-145 311-145 244 0 342 151 342 403V0H750v-692" id="Q"/><g id="k"><use transform="matrix(0.010850694444444444,0,0,0.010850694444444444,0,0)" xlink:href="#M"/><use transform="matrix(0.010850694444444444,0,0,0.010850694444444444,11.89236111111111,0)" xlink:href="#N"/><use transform="matrix(0.010850694444444444,0,0,0.010850694444444444,19.99782986111111,0)" xlink:href="#O"/><use transform="matrix(0.010850694444444444,0,0,0.010850694444444444,25.889756944444443,0)" xlink:href="#J"/><use transform="matrix(0.010850694444444444,0,0,0.010850694444444444,37.47829861111111,0)" xlink:href="#H"/><use transform="matrix(0.010850694444444444,0,0,0.010850694444444444,44.986979166666664,0)" xlink:href="#O"/><use transform="matrix(0.010850694444444444,0,0,0.010850694444444444,50.87890625,0)" xlink:href="#P"/><use transform="matrix(0.010850694444444444,0,0,0.010850694444444444,63.444010416666664,0)" xlink:href="#Q"/></g><path fill="#444d5d" d="M1226-1213H780V0H480v-1213H40v-243h1186v243" id="R"/><g id="l"><use transform="matrix(0.010850694444444444,0,0,0.010850694444444444,0,0)" xlink:href="#R"/><use transform="matrix(0.010850694444444444,0,0,0.010850694444444444,13.042534722222221,0)" xlink:href="#N"/><use transform="matrix(0.010850694444444444,0,0,0.010850694444444444,20.822482638888886,0)" xlink:href="#I"/><use transform="matrix(0.010850694444444444,0,0,0.010850694444444444,32.736545138888886,0)" xlink:href="#Q"/><use transform="matrix(0.010850694444444444,0,0,0.010850694444444444,45.182291666666664,0)" xlink:href="#G"/><use transform="matrix(0.010850694444444444,0,0,0.010850694444444444,56.608072916666664,0)" xlink:href="#O"/><use transform="matrix(0.010850694444444444,0,0,0.010850694444444444,62.5,0)" xlink:href="#H"/><use transform="matrix(0.010850694444444444,0,0,0.010850694444444444,70.00868055555556,0)" xlink:href="#O"/><use transform="matrix(0.010850694444444444,0,0,0.010850694444444444,75.90060763888889,0)" xlink:href="#P"/><use transform="matrix(0.010850694444444444,0,0,0.010850694444444444,88.46571180555556,0)" xlink:href="#Q"/></g></defs></g></svg>